<?xml version="1.0" standalone="no"?>
<!DOCTYPE svg PUBLIC "-//W3C//DTD SVG 20010904//EN"
 "http://www.w3.org/TR/2001/REC-SVG-20010904/DTD/svg10.dtd">
<svg version="1.0" xmlns="http://www.w3.org/2000/svg"
 width="1068.000000pt" height="943.000000pt" viewBox="0 0 1068.000000 943.000000"
 preserveAspectRatio="xMidYMid meet">

<g transform="translate(0.000000,943.000000) scale(0.100000,-0.100000)"
fill="#000000" stroke="none">
<path d="M4516 8169 c-86 -9 -306 -56 -306 -66 0 -3 51 -4 113 -2 61 1 120 -1
129 -5 9 -4 27 -6 40 -3 18 3 16 5 -9 6 -29 1 -51 16 -40 27 2 3 17 7 33 10
16 3 45 9 64 14 19 6 61 10 93 10 31 0 57 4 57 10 0 11 -46 11 -174 -1z"/>
<path d="M5620 8174 c8 -2 49 -8 90 -13 41 -5 82 -11 90 -13 8 -3 30 -8 47
-12 18 -4 31 -13 30 -19 -1 -9 28 -13 98 -14 l100 -1 -55 18 c-70 23 -220 47
-330 54 -47 2 -78 3 -70 0z"/>
<path d="M7116 8053 c-16 -154 -72 -297 -158 -404 l-49 -60 48 -42 c26 -23 99
-90 160 -151 91 -88 110 -103 101 -78 -7 18 -16 32 -20 32 -4 0 -4 7 -1 17 4
11 3 14 -6 9 -15 -10 -11 25 4 36 6 5 6 8 -1 8 -7 0 -11 16 -10 40 1 22 0 40
-4 40 -3 0 -5 30 -5 66 0 36 -3 68 -7 70 -4 3 -3 15 1 27 6 14 5 30 -1 41 -8
15 -8 17 2 11 9 -6 11 -4 5 5 -4 7 -9 43 -10 79 -2 67 -8 115 -29 251 l-12 75
-8 -72z"/>
<path d="M4568 8083 c7 -3 16 -2 19 1 4 3 -2 6 -13 5 -11 0 -14 -3 -6 -6z"/>
<path d="M4390 7944 c-62 -8 -203 -46 -254 -68 l-50 -22 102 4 c196 8 441 -31
602 -97 41 -17 77 -27 80 -23 9 12 41 14 55 2 10 -8 15 -8 21 2 4 7 3 10 -1 5
-5 -4 -17 5 -27 20 -10 16 -18 22 -18 14 0 -8 -3 -11 -7 -7 -5 4 -8 12 -8 17
0 5 -3 8 -7 7 -4 -2 -13 6 -21 16 -8 11 -19 16 -25 12 -7 -4 -12 -2 -12 3 0 6
-6 11 -14 11 -8 0 -21 6 -28 13 -19 19 -46 28 -53 17 -4 -6 -16 -3 -30 6 -13
9 -27 15 -32 14 -4 -1 -9 3 -11 9 -2 6 1 11 8 11 6 0 8 -6 5 -12 -4 -7 -1 -6
7 2 13 15 68 23 68 11 0 -4 18 -7 40 -6 22 0 40 3 40 6 0 21 -325 46 -430 33z"/>
<path d="M5646 7941 c-5 -8 9 -11 46 -12 29 -1 57 -1 61 0 5 1 6 -3 2 -9 -3
-5 -1 -10 6 -10 7 0 2 -11 -11 -25 -13 -14 -30 -23 -37 -21 -7 3 -15 1 -18 -5
-4 -5 -11 -7 -16 -3 -6 3 -19 -3 -30 -15 -21 -22 -45 -29 -33 -9 4 7 3 8 -5 4
-6 -4 -9 -12 -6 -17 4 -5 -3 -9 -14 -9 -12 0 -21 -4 -21 -10 0 -5 21 -3 48 5
109 34 228 48 400 49 l174 1 -49 21 c-93 41 -212 65 -354 71 -97 4 -138 3
-143 -6z m164 -33 c0 -6 -3 -8 -7 -5 -3 4 -12 -1 -20 -11 -13 -15 -13 -15 -3
6 11 23 30 30 30 10z"/>
<path d="M5578 7933 c6 -2 18 -2 25 0 6 3 1 5 -13 5 -14 0 -19 -2 -12 -5z"/>
<path d="M4840 7900 c8 -5 22 -9 30 -9 10 0 8 3 -5 9 -27 12 -43 12 -25 0z"/>
<path d="M3266 7705 c3 -11 9 -29 12 -40 2 -11 8 -24 12 -30 4 -5 11 -25 15
-42 9 -42 15 -45 44 -22 l23 19 -38 43 c-22 23 -47 53 -57 67 -14 19 -17 20
-11 5z"/>
<path d="M3873 7671 c-83 -60 -103 -113 -108 -280 -4 -122 -5 -126 -45 -205
-37 -76 -40 -87 -40 -166 0 -94 16 -173 45 -216 l18 -28 19 93 c10 52 32 128
48 170 29 75 83 161 101 161 5 0 43 -36 85 -80 42 -44 95 -89 120 -101 48 -23
49 -29 18 -91 -23 -46 -16 -48 42 -13 82 50 148 70 229 69 83 0 142 -23 204
-79 41 -37 41 -37 41 -12 0 42 -53 180 -100 258 -54 91 -174 211 -260 262 -90
52 -207 87 -313 94 -82 6 -89 8 -98 30 -14 38 -11 66 15 116 13 26 22 47 21
47 -1 0 -20 -13 -42 -29z m272 -268 c85 -30 112 -93 56 -133 -17 -11 -33 -30
-36 -41 -8 -25 17 -65 45 -74 24 -8 70 18 70 39 0 19 57 66 80 66 18 0 100
-88 100 -108 0 -17 -67 -69 -106 -82 -47 -16 -149 -8 -192 14 -46 24 -104 84
-127 131 -26 53 -27 151 -2 188 19 29 28 29 112 0z"/>
<path d="M6379 7668 c26 -43 35 -97 22 -129 -9 -25 -14 -26 -98 -32 -106 -6
-221 -41 -313 -94 -85 -50 -206 -170 -258 -259 -46 -77 -102 -220 -102 -260
l0 -26 41 37 c49 44 110 73 171 81 80 11 203 -27 291 -88 32 -23 34 -11 7 42
-11 22 -20 44 -20 49 0 6 19 19 43 29 44 20 111 80 165 147 39 48 52 44 99
-35 39 -64 69 -150 92 -266 14 -68 20 -82 29 -71 26 30 44 107 49 202 l5 100
-43 85 c-42 84 -42 86 -44 205 -2 66 -8 139 -15 163 -15 48 -63 109 -109 135
l-31 18 19 -33z m-135 -260 c25 -39 30 -100 12 -161 -40 -139 -214 -226 -344
-171 -38 16 -92 61 -92 77 0 19 83 107 100 107 23 0 80 -47 80 -66 0 -21 46
-47 70 -39 28 9 53 49 45 74 -3 11 -19 30 -36 41 -61 44 -27 107 77 140 75 24
71 24 88 -2z"/>
<path d="M3329 7177 c-51 -29 -118 -69 -147 -89 -46 -31 -50 -36 -28 -34 14 0
26 4 26 9 0 4 14 7 32 7 43 0 32 -10 -21 -19 -3 -1 3 -7 13 -14 17 -12 16 -16
-13 -59 -17 -25 -45 -76 -61 -114 -26 -57 -28 -65 -11 -47 12 12 21 25 21 28
0 10 49 55 60 55 6 0 13 7 17 16 5 12 7 13 14 2 12 -19 23 -4 70 92 22 46 60
113 85 148 25 35 43 66 41 68 -1 2 -46 -20 -98 -49z"/>
<path d="M6850 7227 c0 -2 21 -35 46 -73 56 -86 105 -186 138 -284 25 -77 54
-245 43 -256 -3 -3 -43 19 -88 50 -45 31 -83 55 -85 53 -2 -1 4 -25 12 -52 32
-106 65 -340 71 -505 3 -99 2 -161 -4 -155 -5 6 -26 36 -47 68 -21 31 -55 71
-75 89 l-36 32 -7 -110 c-8 -121 -42 -258 -86 -337 l-26 -48 -17 61 c-29 107
-86 160 -172 160 -36 0 -48 3 -44 13 23 59 39 178 35 255 -10 169 -81 279
-229 351 -66 32 -85 47 -122 97 -91 124 -231 187 -347 157 l-34 -9 59 -34 c70
-40 179 -142 173 -162 -3 -7 -20 -15 -39 -19 -33 -5 -32 -5 18 -13 69 -10 163
-56 196 -95 106 -126 12 -278 -226 -362 -48 -18 -85 -34 -83 -36 8 -8 147 17
203 37 70 25 126 58 184 109 53 46 59 42 59 -37 -1 -60 -27 -119 -73 -159 -45
-39 -170 -81 -357 -118 -74 -15 -137 -30 -140 -32 -11 -11 358 7 425 21 39 8
71 13 73 11 2 -1 0 -14 -4 -29 -10 -41 -79 -103 -142 -127 -78 -30 -261 -37
-392 -15 -52 8 -97 13 -100 10 -10 -11 65 -65 120 -85 40 -15 79 -21 144 -22
87 0 88 -1 65 -18 -13 -10 -48 -25 -77 -35 -85 -26 -191 -16 -337 34 -66 22
-150 46 -187 52 -37 7 -72 18 -79 26 -21 26 -3 131 36 211 45 92 107 147 230
208 102 50 147 91 186 174 32 65 38 197 13 277 l-18 59 -7 -110 c-9 -153 -33
-205 -93 -205 -22 0 -42 11 -72 41 -53 52 -59 51 -190 -36 -190 -125 -240
-123 -443 20 -91 65 -104 66 -155 16 -30 -30 -50 -41 -72 -41 -60 0 -84 52
-93 205 l-7 110 -18 -59 c-25 -80 -19 -212 13 -277 40 -85 83 -124 195 -179
120 -58 181 -115 227 -213 33 -71 49 -178 30 -201 -7 -8 -42 -19 -79 -26 -37
-6 -121 -30 -187 -52 -144 -49 -250 -60 -336 -34 -30 9 -65 24 -78 35 l-25 19
90 0 c65 0 104 6 144 21 55 20 130 74 120 85 -3 3 -48 -2 -100 -10 -134 -22
-315 -15 -394 16 -64 24 -132 84 -142 125 -3 14 -5 28 -3 29 2 2 36 -2 74 -10
67 -14 435 -32 425 -21 -3 2 -66 17 -140 32 -187 37 -312 79 -357 118 -60 53
-87 139 -67 214 6 22 8 21 52 -17 54 -48 129 -92 195 -114 52 -17 186 -40 193
-33 3 2 -30 16 -73 32 -128 44 -225 111 -260 178 -32 63 -15 154 39 204 32 31
124 70 183 79 49 8 49 8 16 14 -19 3 -36 10 -38 17 -7 20 76 101 154 150 l75
48 -34 8 c-53 14 -139 2 -199 -28 -55 -28 -163 -131 -174 -166 -4 -11 -35 -32
-80 -53 -122 -56 -200 -144 -231 -258 -24 -91 -14 -259 21 -349 5 -14 -4 -17
-54 -21 -50 -4 -66 -9 -92 -34 -39 -37 -49 -55 -69 -129 l-17 -60 -31 62 c-46
90 -73 201 -81 327 l-7 111 -52 -54 c-28 -30 -64 -78 -79 -107 -24 -45 -25
-54 -13 -69 14 -17 22 -57 9 -50 -4 3 -10 -2 -13 -11 -3 -8 -2 -13 2 -10 4 2
12 -7 19 -20 7 -16 8 -22 0 -17 -6 4 -8 0 -4 -10 4 -10 -1 -21 -11 -27 -14 -9
-13 -10 6 -5 17 5 22 3 19 -12 -1 -10 -7 -25 -11 -33 -5 -8 5 -2 22 14 18 16
33 28 35 25 2 -2 11 -43 20 -91 37 -190 109 -362 208 -493 27 -36 52 -65 55
-65 3 0 2 15 -1 33 -12 61 13 197 48 266 41 83 86 110 149 92 57 -18 132 -91
170 -169 29 -58 32 -75 36 -178 l5 -114 33 0 34 0 0 -111 0 -110 39 28 c22 15
37 31 34 35 -2 5 0 8 6 8 6 0 15 10 21 23 10 20 10 20 -3 5 -18 -22 -31 -23
-23 -2 4 10 2 13 -6 8 -7 -5 -9 1 -6 20 3 14 1 29 -4 32 -4 3 -5 11 -1 17 8
12 9 17 12 37 0 6 5 10 11 10 5 0 6 -8 3 -17 -5 -12 -2 -15 10 -10 10 4 17 1
17 -6 0 -6 7 -1 17 12 12 18 13 28 5 41 -8 13 -7 17 4 17 8 0 14 -7 15 -16 0
-9 2 -24 4 -33 2 -10 -2 -18 -9 -18 -7 0 -13 -7 -13 -14 0 -11 5 -12 18 -5 10
5 26 9 36 9 15 0 16 -2 3 -10 -13 -8 -12 -11 5 -25 11 -9 14 -14 8 -10 -7 3
-13 3 -14 -2 0 -4 -2 -16 -4 -25 -2 -10 2 -21 7 -25 6 -3 8 -1 5 4 -4 6 0 13
8 16 10 4 12 1 8 -10 -4 -10 -2 -14 4 -10 6 4 14 0 17 -9 3 -8 2 -13 -2 -10
-4 2 -13 1 -20 -3 -9 -5 -8 -23 2 -77 8 -38 17 -136 21 -219 4 -82 13 -181 21
-220 20 -101 72 -199 140 -265 31 -30 50 -45 43 -32 -8 12 -17 22 -21 22 -4 0
-5 7 -2 15 4 8 2 15 -4 15 -13 0 -22 49 -10 56 5 3 3 13 -5 22 -21 25 -29 65
-11 58 11 -4 11 0 -2 19 -9 14 -13 25 -10 25 4 0 2 10 -5 21 -8 15 -8 19 0 15
15 -10 13 5 -4 28 -8 11 -13 28 -9 38 3 11 0 18 -8 18 -11 0 -11 2 0 9 14 8
13 32 -2 43 -6 4 -4 14 5 24 12 16 12 17 -3 11 -10 -3 -18 -2 -18 3 0 6 5 10
10 10 6 0 10 5 10 11 0 5 -4 8 -9 4 -6 -3 -15 4 -21 15 -6 12 -7 20 -1 20 5 0
12 -6 14 -12 4 -10 6 -10 6 0 1 6 8 12 16 12 8 0 13 6 11 13 -1 6 -1 9 1 4 3
-4 9 -5 14 -2 5 4 6 -2 2 -11 -5 -13 -3 -15 8 -9 12 7 12 6 1 -7 -10 -13 -9
-16 8 -21 11 -3 20 0 20 6 0 6 3 7 6 4 4 -4 1 -13 -6 -22 -10 -12 -8 -16 14
-26 14 -7 26 -20 26 -31 0 -10 4 -18 9 -18 5 0 12 -12 14 -27 2 -16 5 0 6 34
1 77 17 153 43 215 22 52 38 54 38 5 0 -48 45 -212 80 -295 36 -84 32 -100
-30 -132 -47 -24 -83 -26 -100 -5 -15 18 -37 21 -23 3 5 -7 15 -26 21 -41 10
-23 10 -27 0 -21 -9 6 -9 3 1 -9 7 -9 10 -17 6 -17 -4 0 -3 -6 3 -13 6 -7 9
-23 5 -35 -3 -12 -1 -22 5 -22 6 0 9 -9 7 -20 -5 -27 7 -25 36 6 36 39 128 82
200 94 83 13 346 13 429 -1 91 -14 172 -54 220 -105 22 -24 40 -48 40 -54 0
-23 33 -7 87 45 45 42 55 57 44 64 -7 5 -10 14 -7 20 4 6 3 11 -2 11 -6 0 -8
9 -5 20 3 12 0 20 -7 20 -10 0 -10 3 0 15 7 8 9 15 4 15 -10 0 -14 25 -17 105
-1 30 -5 55 -9 55 -3 0 -5 14 -4 30 1 17 -2 30 -7 30 -5 0 -4 7 3 15 8 9 8 15
2 15 -6 0 -9 17 -8 40 2 22 0 37 -5 35 -4 -3 -11 0 -15 6 -4 8 -3 9 4 5 7 -4
12 -2 12 3 0 6 -3 11 -7 11 -5 0 -8 13 -8 29 0 16 3 27 8 24 4 -2 7 -13 7 -24
0 -10 5 -19 10 -19 6 0 10 5 10 11 0 5 5 7 10 4 6 -3 10 -11 10 -16 0 -6 -4
-8 -9 -4 -15 9 -24 -16 -11 -28 10 -9 11 -9 5 3 -8 13 -6 13 8 1 9 -7 24 -11
33 -7 11 4 14 1 9 -13 -4 -15 -1 -18 19 -16 14 2 33 -4 43 -12 10 -8 11 -11 3
-7 -12 7 -13 5 -3 -8 7 -8 9 -19 5 -24 -4 -4 1 -2 11 5 15 12 17 11 17 -9 0
-16 4 -21 16 -16 12 4 15 2 10 -9 -3 -8 -1 -15 4 -15 12 0 17 37 29 216 11
154 22 205 50 237 22 27 78 17 135 -22 l46 -32 0 111 0 110 35 0 35 0 0 88 c0
134 30 217 109 305 105 117 206 97 266 -53 11 -29 20 -85 24 -160 l6 -115 52
70 c105 140 188 335 215 504 l12 81 34 -33 c44 -43 109 -127 132 -172 l18 -36
15 68 c44 198 55 482 24 633 -8 41 -13 77 -11 79 4 4 81 -40 158 -92 l59 -40
-7 59 c-28 233 -115 514 -212 687 -18 31 -30 57 -26 57 4 0 45 -33 92 -73 130
-113 243 -257 334 -427 45 -83 60 -97 31 -27 -8 19 -11 38 -7 42 4 5 1 5 -5 1
-11 -6 -16 2 -12 17 0 1 -4 14 -10 29 -7 19 -7 29 0 34 8 4 7 9 -2 15 -11 6
-10 9 3 14 9 4 14 13 12 20 -3 7 0 16 6 20 8 5 7 13 -3 28 -7 12 -13 34 -12
49 1 15 -1 27 -4 26 -18 -2 -24 3 -12 11 16 10 -85 89 -303 235 -129 87 -336
205 -336 193z m-1366 -1713 c21 -21 23 -196 2 -213 -21 -18 -38 -5 -80 60 -51
79 -73 90 -127 60 -35 -20 -44 -21 -70 -11 -16 7 -37 26 -46 41 -10 16 -20 29
-23 29 -3 0 -13 -13 -23 -29 -9 -15 -30 -34 -46 -41 -26 -10 -35 -9 -70 11
-54 30 -80 18 -129 -61 -40 -64 -57 -77 -78 -59 -21 17 -19 192 2 213 13 14
59 16 344 16 285 0 331 -2 344 -16z m-910 -52 c39 -23 43 -49 16 -132 -24 -76
-44 -248 -38 -338 2 -34 0 -61 -4 -60 -19 7 -100 129 -122 185 -14 34 -35 110
-47 169 -24 121 -18 171 23 192 31 16 134 6 172 -16z m1312 4 c24 -20 28 -31
27 -72 -2 -81 -39 -236 -72 -304 -32 -64 -97 -160 -109 -160 -4 0 -8 64 -9
143 -1 93 -7 161 -18 197 -34 122 -40 157 -26 174 17 20 94 44 143 45 25 1 46
-7 64 -23z m-1676 -320 c0 -2 -8 -10 -17 -17 -16 -13 -17 -12 -4 4 13 16 21
21 21 13z m30 -15 c0 -5 -3 -11 -7 -14 -5 -2 -2 -2 4 -1 10 3 41 -34 31 -37
-33 -9 -39 -7 -26 9 8 10 9 13 1 9 -6 -4 -14 -3 -18 2 -3 6 -13 7 -22 4 -13
-5 -13 -3 3 14 21 23 34 28 34 14z m826 -198 c51 -16 59 -15 146 2 120 23 176
16 226 -29 32 -30 36 -40 40 -93 5 -70 -17 -155 -54 -214 -20 -33 -28 -38 -49
-33 -19 5 -31 -1 -53 -26 l-29 -31 -17 25 c-10 16 -26 26 -41 26 -26 0 -65
-42 -65 -71 0 -14 -7 -19 -30 -19 -23 0 -30 5 -30 19 0 29 -39 71 -65 71 -15
0 -31 -10 -41 -26 l-17 -25 -29 31 c-22 24 -34 31 -52 26 -29 -7 -47 11 -83
89 -36 79 -39 188 -7 232 45 62 143 80 250 46z m-677 -30 c11 -9 18 -20 15
-25 -3 -5 0 -15 6 -23 9 -11 9 -15 1 -15 -6 0 -11 5 -11 11 0 5 -4 8 -9 4 -5
-3 -13 0 -17 6 -4 7 -3 9 3 6 6 -4 14 0 17 9 4 11 2 15 -8 11 -14 -5 -36 10
-36 25 0 13 19 9 39 -9z m12 -92 c6 9 9 10 9 2 0 -7 7 -10 18 -7 15 5 15 4 2
-6 -11 -9 -12 -13 -2 -17 6 -2 12 -11 12 -19 0 -9 4 -13 9 -10 10 7 9 -19 -1
-29 -10 -10 -46 17 -41 30 2 7 -2 15 -9 18 -8 2 -14 20 -15 38 0 23 1 26 4 10
4 -19 7 -21 14 -10z m1218 -112 c23 -58 25 -78 26 -210 0 -159 -9 -195 -52
-206 -31 -7 -100 24 -120 53 -13 21 -12 29 16 91 35 81 69 206 78 286 3 32 10
56 16 54 6 -2 22 -32 36 -68z m-1139 10 c0 -8 -59 -9 -64 -1 -2 4 11 7 30 7
19 0 34 -2 34 -6z m-10 -47 c-15 -5 -43 25 -27 31 6 3 18 -3 25 -12 8 -10 9
-17 2 -19z m15 -22 c-3 -5 -16 -10 -28 -9 -21 0 -21 1 -2 9 28 12 37 12 30 0z
m115 -84 c-4 -4 -16 -4 -26 2 -16 9 -14 10 8 9 15 -1 23 -6 18 -11z m17 -38
c-3 -8 -6 -5 -6 6 -1 11 2 17 5 13 3 -3 4 -12 1 -19z m324 0 c24 -46 41 -48
78 -7 l29 31 16 -23 c25 -36 21 -102 -8 -136 -20 -23 -32 -28 -68 -28 -25 0
-55 8 -71 18 -24 16 -27 23 -27 76 0 33 3 66 6 75 9 23 31 20 45 -6z m358 -38
c11 0 22 12 45 45 12 16 16 17 30 6 18 -15 23 -110 6 -141 -24 -45 -125 -47
-160 -3 -25 32 -27 99 -4 132 l16 23 29 -31 c15 -17 32 -31 38 -31z"/>
<path d="M4396 4791 c-3 -5 1 -11 9 -14 9 -4 12 -1 8 9 -6 16 -10 17 -17 5z"/>
<path d="M3197 6745 c-4 -8 -3 -16 1 -19 4 -3 9 4 9 15 2 23 -3 25 -10 4z"/>
<path d="M3293 6663 c-75 -53 -96 -81 -53 -70 12 3 20 -2 24 -17 9 -32 7 -43
-4 -26 -8 12 -10 11 -10 -7 0 -12 6 -24 13 -26 9 -4 8 -6 -2 -6 -11 -1 -11 -4
-1 -16 7 -8 9 -15 5 -15 -4 0 -1 -8 6 -17 10 -12 10 -15 1 -9 -10 6 -10 2 -1
-18 7 -14 15 -23 19 -21 4 3 6 -10 4 -28 -5 -61 13 4 31 108 10 55 26 128 35
163 10 34 16 62 15 62 -1 0 -38 -26 -82 -57z"/>
<path d="M3175 6700 c3 -5 8 -10 11 -10 2 0 4 5 4 10 0 6 -5 10 -11 10 -5 0
-7 -4 -4 -10z"/>
<path d="M3072 6691 c-7 -4 -14 -18 -15 -29 -1 -12 -4 -22 -8 -22 -14 0 -63
-218 -84 -374 l-7 -50 39 29 c69 52 77 63 63 93 -7 16 -8 28 -2 30 5 1 8 12 5
22 -3 12 0 20 6 20 7 0 9 4 6 10 -3 5 1 20 10 34 11 16 13 26 6 31 -14 8 -14
25 0 25 5 0 7 -4 4 -10 -3 -5 -1 -10 5 -10 11 0 9 44 -3 56 -13 13 -7 22 12
17 20 -5 38 12 22 21 -5 3 -7 16 -3 29 5 20 4 21 -14 7 -18 -14 -18 -14 -5 3
12 15 11 17 -6 17 -10 0 -24 -5 -30 -11 -15 -15 -8 38 7 56 14 17 11 19 -8 6z"/>
<path d="M3125 6681 c-3 -6 -10 -9 -14 -7 -4 3 -8 -1 -8 -9 0 -19 28 -28 41
-14 8 9 7 10 -6 6 -10 -4 -18 -2 -18 2 0 5 6 11 13 14 6 2 9 7 6 11 -4 4 -10
2 -14 -3z"/>
<path d="M7557 6410 c3 -11 7 -20 9 -20 2 0 4 9 4 20 0 11 -4 20 -9 20 -5 0
-7 -9 -4 -20z"/>
<path d="M7570 6379 c0 -4 7 -22 15 -40 8 -19 14 -27 14 -19 0 14 -28 72 -29
59z"/>
<path d="M7604 6285 c3 -11 14 -54 25 -95 31 -116 51 -276 51 -406 l0 -118
-77 83 -78 84 -1 -274 c0 -236 -3 -290 -22 -390 -21 -116 -76 -304 -90 -313
-5 -3 -39 53 -77 125 -37 71 -71 129 -74 129 -3 0 -16 -53 -29 -118 -25 -127
-57 -246 -98 -358 l-26 -71 -86 4 c-48 3 -107 0 -132 -5 -44 -11 -44 -11 -94
36 l-50 47 -11 -72 c-6 -40 -14 -75 -18 -79 -3 -4 -29 19 -57 49 -183 201
-461 132 -608 -150 -22 -43 -54 -88 -71 -101 -17 -12 -43 -46 -58 -75 -25 -47
-28 -62 -28 -157 -1 -104 -1 -106 -44 -188 -43 -81 -124 -182 -163 -203 -18
-10 -19 -7 -18 53 1 35 1 88 1 118 l-1 54 -52 -79 c-77 -120 -233 -271 -334
-322 -44 -23 -98 -45 -120 -48 -86 -14 -219 58 -355 194 -53 53 -119 131 -146
173 l-50 77 -7 -46 c-3 -25 -3 -77 1 -115 6 -69 6 -70 -15 -59 -39 21 -119
122 -164 209 l-46 87 5 92 c5 86 4 96 -21 147 -15 31 -44 70 -65 88 -22 19
-54 64 -74 105 -50 98 -132 185 -216 225 -58 29 -76 33 -146 33 -103 0 -171
-31 -245 -112 -28 -30 -54 -53 -57 -49 -3 3 -11 39 -17 78 l-11 73 -50 -47
c-51 -47 -51 -47 -95 -36 -25 5 -84 8 -132 5 l-87 -4 -31 86 c-38 103 -83 276
-101 384 -7 42 -16 77 -20 77 -4 0 -39 -62 -78 -137 l-69 -138 -21 45 c-21 44
-21 44 -15 10 7 -43 8 -49 21 -80 6 -14 9 -29 6 -33 -3 -4 1 -14 7 -22 6 -8 9
-19 6 -24 -4 -5 -2 -12 4 -16 5 -3 10 -14 10 -25 0 -10 6 -20 14 -23 8 -3 17
-19 21 -36 4 -17 10 -29 15 -26 8 5 26 -33 22 -48 -1 -4 5 -10 13 -13 8 -4 15
-15 15 -26 0 -10 4 -17 9 -14 5 3 12 -1 15 -10 4 -10 2 -13 -7 -8 -7 5 -6 0 3
-12 8 -10 15 -20 16 -22 1 -1 37 10 80 25 67 23 95 27 184 27 141 -1 193 -21
283 -110 87 -87 112 -138 112 -229 0 -97 -42 -174 -140 -258 l-40 -34 0 86
c-1 68 -5 94 -22 127 -68 129 -247 197 -384 145 -79 -30 -196 -141 -130 -124
11 3 40 24 64 48 66 63 167 81 260 46 l27 -10 -27 -28 c-51 -55 -76 -128 -81
-239 -5 -120 7 -380 17 -367 4 4 18 44 30 88 32 114 102 255 147 294 20 18 38
31 39 29 2 -2 -21 -64 -50 -138 -67 -167 -120 -342 -137 -448 l-12 -82 -39 38
c-84 81 -158 213 -199 359 -22 73 -26 80 -42 71 -13 -7 -17 -7 -12 0 3 6 2 13
-4 17 -5 3 -7 17 -4 31 4 14 2 24 -5 24 -6 0 -11 -8 -11 -18 0 -10 -13 -39
-29 -64 -31 -49 -90 -85 -158 -95 -22 -3 -48 -16 -63 -31 -15 -16 -18 -24 -8
-20 9 4 19 1 21 -7 6 -15 -1 -25 -17 -25 -6 0 -4 5 4 10 10 7 11 10 2 10 -7 0
-15 -6 -18 -14 -7 -17 -30 -11 -38 10 -7 19 13 104 25 104 5 0 8 3 8 8 -3 19
2 26 11 12 14 -22 23 -5 28 55 4 47 1 61 -20 93 -23 34 -88 83 -88 66 0 -4 16
-20 35 -36 29 -25 32 -33 23 -48 -7 -10 -15 -17 -19 -14 -4 2 -9 -3 -13 -11
-4 -10 1 -15 14 -15 11 0 20 -6 20 -14 0 -7 -20 -74 -44 -147 -48 -143 -86
-311 -86 -378 0 -39 -1 -41 -20 -31 -11 6 -37 33 -58 61 -37 50 -53 51 -32 0
6 -15 13 -43 15 -62 3 -19 9 -35 14 -37 6 -2 7 -10 5 -17 -3 -8 1 -27 9 -42 8
-15 21 -43 27 -60 7 -18 17 -33 23 -33 6 0 7 -3 4 -7 -4 -3 -2 -12 4 -20 14
-15 85 -18 94 -2 5 6 12 4 20 -8 7 -10 11 -21 9 -25 -2 -4 0 -9 5 -13 6 -3 8
3 6 15 -2 11 0 22 6 25 5 4 9 11 9 17 0 7 -6 6 -15 -2 -12 -10 -15 -9 -15 7 0
10 7 28 16 39 14 18 14 18 3 -6 -8 -18 -8 -22 0 -14 16 14 22 52 10 59 -5 4
-7 10 -4 15 3 5 1 12 -5 15 -6 4 -8 16 -4 27 3 11 2 18 -2 15 -5 -3 -9 6 -9
19 0 13 4 24 8 24 5 0 5 6 0 13 -11 17 -11 29 -1 50 5 10 5 17 -1 17 -10 0 -9
25 2 36 4 4 -1 13 -11 21 -16 12 -16 14 3 29 19 15 19 16 1 10 -15 -5 -17 -4
-8 7 9 10 8 17 -1 27 -8 9 -9 11 0 6 6 -3 14 -2 18 4 3 5 1 10 -5 10 -6 0 -8
5 -5 10 5 8 12 7 23 -2 14 -12 14 -10 3 10 -11 20 -15 21 -29 10 -11 -9 -10
-5 3 14 l20 26 12 -21 c11 -20 18 -12 14 16 0 4 4 7 9 7 7 0 7 7 -1 21 -6 13
-7 19 -1 15 6 -3 13 0 16 6 3 7 3 3 1 -8 -4 -14 0 -24 10 -28 8 -3 15 -13 15
-21 0 -9 -5 -13 -10 -10 -6 4 -7 11 -4 17 4 7 2 8 -5 4 -15 -10 2 -32 30 -41
10 -4 19 -13 19 -21 0 -8 7 -14 15 -14 8 0 15 -5 15 -11 0 -6 7 -8 16 -5 8 3
12 2 9 -4 -3 -6 2 -10 12 -10 15 0 16 -2 3 -10 -11 -7 -11 -10 -2 -10 7 0 11
-4 8 -9 -3 -4 9 -7 27 -5 22 3 28 1 17 -5 -8 -6 -18 -7 -23 -4 -5 3 -3 -4 4
-15 7 -12 17 -18 21 -16 4 3 8 -4 8 -15 0 -12 5 -21 10 -21 6 0 10 5 10 10 0
6 4 10 10 10 5 0 7 -6 4 -14 -3 -8 8 -27 23 -43 22 -23 32 -27 40 -18 9 9 8
16 0 26 -10 11 -9 11 5 0 10 -7 14 -20 11 -29 -5 -14 -3 -15 8 -4 7 6 18 12
24 12 5 0 3 -5 -5 -10 -13 -8 -13 -11 -1 -22 10 -10 12 -10 7 0 -5 8 0 12 14
12 12 0 18 -4 15 -10 -3 -5 -1 -10 5 -10 6 0 8 -5 5 -10 -4 -6 -11 -8 -16 -5
-5 4 -9 1 -9 -4 0 -6 7 -11 16 -11 10 0 14 -7 12 -20 -2 -10 6 -26 17 -35 11
-9 14 -14 8 -10 -7 3 -13 1 -13 -4 0 -6 8 -11 18 -12 10 0 12 -3 5 -6 -16 -6
-17 -23 -2 -23 16 0 36 -24 31 -38 -2 -6 2 -12 10 -13 7 0 4 -4 -7 -9 -13 -5
23 -9 98 -9 118 -1 118 -1 111 -23 -3 -13 -57 -180 -119 -373 -63 -192 -149
-460 -192 -595 l-79 -245 -161 -3 -161 -2 -17 62 c-9 35 -56 212 -104 393 -83
311 -89 328 -99 293 -5 -20 -52 -197 -104 -392 l-93 -356 -162 0 -163 0 -62
195 c-34 107 -66 195 -70 195 -5 0 -4 -8 1 -18 5 -9 11 -30 14 -47 3 -16 8
-37 11 -45 3 -8 8 -26 10 -40 3 -14 10 -42 15 -62 5 -21 7 -38 4 -38 -3 0 -1
-6 5 -13 6 -7 14 -28 17 -47 5 -31 38 -143 52 -180 4 -8 5 -19 4 -24 -1 -4 4
-14 10 -22 6 -8 8 -14 4 -14 -4 0 -2 -6 4 -13 6 -8 8 -17 5 -20 -7 -7 26 -15
75 -19 l34 -3 45 -169 46 -169 42 160 c23 89 45 166 48 172 4 6 38 11 82 11
l74 0 0 -255 0 -255 -50 0 -50 0 -1 183 -1 182 -46 -180 -47 -180 -52 -3 c-50
-3 -53 -2 -59 25 -4 15 -24 93 -45 173 l-37 145 -1 -171 -1 -171 -30 -7 c-28
-5 -29 -7 -18 -26 7 -11 18 -20 25 -20 6 0 10 -11 8 -25 -1 -14 1 -25 5 -25 4
0 5 -11 3 -25 -4 -19 0 -27 21 -36 14 -7 26 -15 26 -19 0 -5 8 -7 18 -6 9 0
16 -4 15 -11 -2 -7 6 -17 17 -23 11 -6 17 -16 14 -22 -4 -6 -3 -8 4 -4 6 3 23
-5 39 -20 15 -14 22 -22 14 -18 -14 7 35 -64 52 -77 5 -3 20 -4 35 -2 23 3 24
2 7 -6 -19 -9 -18 -12 5 -15 6 0 15 -7 19 -15 7 -11 10 -9 16 8 6 21 8 21 20
5 7 -10 11 -23 8 -29 -2 -7 3 -12 11 -12 8 0 13 3 11 6 -2 4 3 15 11 26 14 18
19 11 15 -21 -1 -7 8 -14 19 -17 11 -3 18 -1 14 4 -3 5 1 9 8 10 9 0 8 3 -3 7
-13 6 -13 11 -2 32 7 14 13 18 13 10 0 -13 1 -13 10 0 8 12 10 10 11 -10 1
-14 1 -29 0 -34 -1 -5 5 -4 13 4 19 15 22 44 4 34 -7 -4 -10 -4 -6 1 4 4 3 17
-3 29 -9 18 -8 19 3 5 21 -25 38 -13 28 22 -5 16 -5 27 0 24 11 -7 31 19 33
44 1 12 4 21 7 21 3 0 6 19 7 43 1 23 3 47 4 52 1 6 -1 24 -5 40 -5 23 -4 25
3 10 9 -19 10 -19 10 3 1 12 -5 22 -11 22 -9 0 -9 3 -2 8 17 12 23 39 11 51
-8 8 -8 11 1 11 7 0 12 5 12 11 0 5 -4 7 -10 4 -6 -4 -6 3 0 21 9 22 8 25 -4
21 -10 -4 -13 -1 -9 8 3 8 10 12 15 9 6 -4 4 4 -2 17 -16 30 -15 80 2 90 9 6
8 9 -7 10 -11 0 -15 3 -8 5 7 3 9 12 6 21 -4 11 -2 14 5 9 7 -4 12 -1 12 8 0
9 -4 15 -9 14 -5 -2 -9 2 -9 7 0 6 4 9 9 7 5 -1 9 7 9 19 0 11 -4 18 -8 15 -5
-3 -9 1 -9 9 0 9 7 14 16 13 9 -2 15 2 14 9 -3 14 24 25 32 13 4 -6 1 -10 -4
-10 -6 0 -11 -5 -11 -10 0 -6 10 -4 23 5 13 8 27 12 32 8 4 -5 5 -2 1 5 -4 7
-11 10 -15 7 -5 -2 -13 7 -19 20 -7 15 -8 25 -2 25 6 0 10 -6 10 -14 0 -8 9
-18 20 -21 11 -3 20 -13 20 -21 0 -8 5 -14 11 -14 5 0 7 6 3 13 -4 6 -3 9 1 4
12 -10 14 -47 3 -47 -4 0 -8 5 -8 11 0 5 -5 7 -10 4 -5 -3 -10 -11 -10 -16 0
-6 5 -7 10 -4 5 3 10 1 10 -5 0 -6 4 -9 8 -6 5 3 9 -1 9 -9 0 -8 -4 -12 -8 -9
-4 2 -2 -10 4 -26 l12 -31 8 28 c4 15 7 39 6 53 -4 79 -3 80 51 80 l50 0 0
-185 0 -185 -33 0 c-18 0 -42 -7 -53 -16 -10 -8 -13 -13 -7 -9 9 4 13 -1 13
-15 0 -12 4 -19 9 -15 6 3 7 -9 4 -30 -4 -26 -2 -35 8 -35 11 0 11 -2 -1 -10
-9 -6 -11 -10 -3 -10 7 0 10 -7 7 -15 -4 -8 -1 -15 6 -15 6 0 9 -4 6 -9 -3 -4
6 -13 20 -20 14 -6 22 -16 19 -21 -4 -6 -1 -9 7 -8 7 2 12 -3 10 -11 -2 -11 0
-12 11 -2 12 9 16 7 20 -10 3 -11 10 -18 15 -15 6 3 13 0 16 -6 3 -7 4 2 1 20
-2 19 -1 31 3 27 4 -4 7 -12 7 -18 0 -5 7 -12 15 -14 9 -3 11 -1 5 4 -5 4 -11
16 -13 26 -3 15 1 17 17 12 11 -3 23 -1 27 6 5 8 2 10 -7 7 -12 -5 -15 3 -14
31 0 27 4 35 16 33 12 -2 15 4 12 22 -4 21 -2 24 18 20 13 -2 18 -2 11 2 -6 3
-9 11 -5 17 4 6 0 8 -10 4 -11 -4 -14 -2 -10 8 4 11 10 12 24 4 10 -5 19 -8
20 -7 1 5 9 52 11 66 1 7 17 12 40 12 35 0 38 -2 28 -19 -7 -13 -7 -22 0 -26
5 -3 10 2 11 12 0 12 3 9 9 -8 4 -14 15 -37 23 -50 11 -16 13 -29 7 -39 -6 -9
-4 -18 6 -25 8 -6 16 -20 16 -31 2 -16 7 -20 23 -17 14 3 16 2 7 -4 -16 -12
30 -38 52 -30 10 4 16 1 16 -7 0 -11 5 -12 25 -3 19 9 25 18 22 34 -2 13 0 20
6 16 6 -4 8 2 5 15 -3 12 0 26 7 32 9 8 23 0 54 -30 39 -38 59 -51 46 -30 -3
6 1 7 9 4 9 -3 13 -10 10 -15 -10 -16 6 -9 27 12 17 17 23 19 30 8 9 -15 10
-9 11 71 0 65 -4 110 -11 110 -3 0 -6 14 -5 31 1 43 -17 129 -27 129 -5 0 -9
-33 -9 -74 l0 -74 -47 -4 c-27 -3 -50 -3 -52 -2 -2 2 -3 47 -3 101 1 54 -1 93
-4 86 -4 -8 -13 -9 -30 -3 -13 5 -24 7 -24 4 0 -3 -7 1 -15 10 -8 8 -15 21
-15 28 1 17 47 51 60 43 6 -3 10 1 10 9 0 12 -10 16 -39 16 -62 0 -71 -21 -71
-166 l0 -122 -51 -4 c-30 -2 -53 1 -56 7 -2 6 -2 89 -1 185 l3 175 48 3 c42 3
47 1 47 -17 0 -20 0 -20 35 0 38 23 48 37 13 18 -20 -11 -22 -11 -10 3 8 10 9
19 3 22 -11 7 -3 44 13 65 9 12 8 13 -4 7 -8 -4 -7 -1 3 7 11 9 14 18 8 21 -5
4 -9 15 -8 26 1 10 5 16 9 14 5 -3 6 -9 3 -14 -3 -5 0 -12 6 -16 9 -5 10 1 5
20 -4 15 -3 25 2 22 5 -3 9 1 9 8 0 8 -5 12 -12 10 -6 -3 -11 5 -12 17 -1 14
3 19 13 15 16 -6 20 19 4 29 -5 3 -7 12 -4 20 4 8 11 12 18 8 6 -4 5 1 -3 10
-11 14 -11 21 3 42 13 19 14 30 6 45 -8 15 -8 20 1 18 7 -2 13 8 13 23 1 14 7
33 15 42 12 16 8 22 -12 18 -5 -1 -6 3 -2 9 3 5 13 10 21 10 8 0 13 4 9 9 -3
5 -1 12 5 16 6 4 8 11 4 16 -3 5 -10 6 -16 3 -6 -4 -6 0 1 13 6 11 7 23 4 27
-3 3 -1 6 5 6 7 0 12 5 12 11 0 5 -4 7 -10 4 -14 -9 -12 19 2 33 10 10 10 15
-2 22 -11 7 -11 10 -2 10 7 0 10 5 7 10 -3 6 0 10 7 10 9 0 9 3 -2 10 -10 7
-11 10 -2 10 8 0 11 9 8 25 -3 15 0 25 7 25 8 0 8 3 2 8 -15 10 -17 32 -3 32
6 0 8 3 5 7 -4 3 -2 12 4 20 9 9 8 17 0 27 -9 11 -9 15 1 18 7 3 13 20 14 39
2 46 3 46 14 29 5 -8 10 -10 10 -4 0 6 -7 17 -16 25 -14 11 -13 14 8 26 l23
14 -25 -7 -25 -6 24 25 c20 22 21 28 9 32 -8 3 -14 16 -14 28 1 12 -3 28 -8
36 -8 11 -8 13 2 7 7 -4 12 -1 12 9 0 10 -5 13 -12 9 -7 -5 -8 -3 -2 7 13 21
16 51 4 44 -6 -3 -7 1 -4 9 3 9 11 13 18 9 7 -4 6 -1 -2 9 -10 12 -9 18 3 28
13 11 13 15 3 22 -10 6 -10 10 2 18 9 5 10 10 3 10 -14 0 -11 23 6 44 11 13
11 16 1 16 -8 0 -10 3 -7 7 4 3 2 12 -4 20 -9 10 -8 17 2 29 11 13 10 17 -3
25 -25 14 -8 65 20 62 14 -2 22 3 22 13 0 9 5 12 13 8 9 -6 9 -4 1 7 -8 10 -8
22 2 44 10 24 13 26 14 10 0 -12 -5 -26 -10 -31 -7 -7 -6 -11 4 -11 8 0 13 4
10 8 -2 4 0 10 6 14 5 3 10 1 10 -5 0 -6 5 -8 10 -5 5 3 10 -3 10 -14 0 -12 5
-21 11 -21 7 0 10 15 7 40 l-4 40 168 0 168 0 0 -620 0 -620 -149 0 c-82 0
-157 -3 -166 -6 -14 -6 -14 -8 0 -31 9 -13 18 -45 20 -70 4 -56 23 -103 42
-103 8 0 11 -5 8 -10 -3 -6 1 -13 9 -16 9 -3 13 -10 10 -15 -3 -5 1 -12 10
-15 8 -3 17 -22 21 -42 6 -39 25 -78 25 -54 0 6 9 12 20 12 16 0 20 7 20 34 0
30 5 37 46 60 26 14 48 26 50 26 2 0 4 -27 4 -60 l0 -60 35 0 c34 0 35 -1 35
-39 0 -37 -2 -40 -32 -43 l-33 -3 -3 -94 c-3 -102 5 -125 43 -115 20 5 23 1
29 -31 4 -20 5 -40 2 -43 -3 -3 -31 -7 -61 -10 -40 -3 -62 0 -80 12 -14 9 -25
12 -25 7 0 -5 5 -11 10 -13 10 -3 18 -30 25 -88 6 -44 11 -60 23 -72 7 -7 12
-18 12 -25 0 -7 7 -13 15 -13 8 0 15 -7 15 -15 0 -14 17 -20 48 -16 6 1 12 -3
12 -8 0 -6 7 -7 17 -4 12 5 14 3 8 -7 -5 -8 -3 -11 4 -9 7 3 12 8 11 13 -1 4
7 15 17 23 17 14 17 14 -2 9 l-20 -6 20 16 c11 8 19 20 18 25 -2 5 1 9 6 9 4
0 6 12 3 26 -4 21 -2 25 9 19 11 -7 12 -6 2 7 -7 8 -11 17 -8 20 3 3 -1 11
-10 18 -8 7 -15 17 -15 22 0 7 5 6 13 -1 11 -9 14 -2 13 33 -1 29 -5 41 -11
36 -7 -6 -10 5 -9 32 1 22 7 44 14 48 7 4 10 14 7 21 -2 8 5 25 17 38 11 13
16 21 9 17 -14 -8 -18 -1 -26 39 -4 17 -4 24 -1 18 3 -7 10 -13 15 -13 6 0 6
8 -1 19 -8 16 -6 20 8 23 12 2 17 13 17 34 0 23 -4 30 -14 26 -10 -4 -12 -1
-6 9 11 17 16 43 18 92 1 25 7 37 17 37 10 0 11 3 4 8 -12 7 -14 73 -3 66 14
-8 17 25 3 36 -16 14 -19 35 -4 25 16 -10 7 18 -10 32 -13 11 -13 12 2 7 14
-5 16 -1 12 18 -3 12 -6 28 -7 33 -2 6 -7 16 -11 24 -6 10 -5 12 3 7 11 -7 9
17 -5 62 -2 7 1 10 6 7 13 -8 13 15 0 35 -6 9 -5 17 2 21 9 6 8 12 -1 23 -11
13 -11 16 0 16 9 0 10 3 3 8 -6 4 -10 21 -9 37 1 17 -2 35 -7 41 -5 7 -2 16 7
24 9 8 12 17 6 24 -4 6 -9 19 -10 29 0 9 -2 23 -2 30 -1 6 1 34 4 62 4 30 3
44 -3 36 -5 -9 -8 0 -7 26 1 23 5 39 10 36 4 -2 7 1 7 6 0 6 -5 11 -12 11 -9
0 -9 3 -1 11 7 7 8 21 2 42 -7 24 -5 33 9 43 12 10 13 13 3 14 -7 0 -11 6 -7
15 3 8 1 15 -4 15 -6 0 -10 5 -10 11 0 5 3 8 8 6 4 -3 8 6 9 20 1 19 -1 22 -8
12 -7 -11 -9 -9 -9 7 0 11 5 25 12 32 9 9 9 12 0 12 -7 0 -12 7 -12 15 0 8 -4
15 -10 15 -18 0 -10 17 13 28 14 7 16 11 7 11 -13 1 -13 2 0 12 13 9 13 10 0
6 -8 -2 -14 -11 -12 -18 3 -11 1 -11 -9 -2 -9 9 -9 16 -1 26 9 10 8 17 -1 27
-6 8 -2 6 11 -5 21 -17 22 -17 16 -1 -4 11 -1 22 7 27 12 8 12 11 -2 22 -13
10 -13 16 -2 37 7 14 17 26 23 26 5 1 18 2 27 3 13 1 14 4 5 13 -18 18 -15 27
8 25 11 -1 20 -6 20 -11 0 -5 3 -6 7 -3 3 4 12 2 20 -4 9 -8 13 -8 13 -1 0 6
-4 14 -10 17 -5 3 -10 12 -10 18 0 7 9 -1 20 -18 23 -34 26 -49 8 -40 -7 4 -4
-1 6 -9 15 -12 16 -16 5 -16 -12 0 -12 -2 1 -10 13 -9 13 -10 0 -10 -9 0 -11
-3 -4 -8 6 -4 10 -26 9 -49 0 -24 3 -43 7 -43 4 0 8 90 8 200 l0 200 155 0
155 0 0 -87 c1 -65 3 -83 11 -70 12 20 16 147 6 164 -4 6 0 18 9 27 8 9 13 20
9 25 -3 5 7 22 21 38 15 15 21 20 14 11 -9 -14 -10 -18 -1 -18 19 0 38 23 34
40 -4 13 -3 13 5 1 6 -8 8 -20 5 -28 -3 -7 0 -13 7 -13 6 0 8 5 5 10 -3 6 -2
10 4 10 5 0 8 9 6 20 -2 11 0 18 4 15 5 -2 7 -18 6 -35 -2 -21 2 -30 12 -30 8
0 11 4 8 10 -3 6 1 7 10 4 9 -4 23 3 36 17 11 13 18 19 15 12 -4 -6 -2 -14 4
-18 6 -4 8 -11 5 -16 -4 -5 7 -6 25 -3 23 5 30 3 28 -7 -2 -8 -7 -18 -13 -22
-6 -5 -3 -7 7 -4 9 3 19 0 21 -7 4 -9 31 -14 89 -15 170 -4 294 -59 363 -164
61 -93 65 -127 65 -644 l0 -463 -154 0 c-155 0 -187 -7 -151 -34 11 -8 17 -26
17 -59 0 -26 4 -47 9 -47 5 0 9 -9 9 -19 0 -11 16 -35 35 -55 32 -33 37 -53 6
-24 -11 11 -11 9 0 -9 7 -12 17 -19 21 -17 4 3 8 -2 8 -10 0 -9 9 -31 19 -50
11 -19 17 -37 13 -42 -4 -4 -1 -4 6 0 9 6 11 1 8 -18 -3 -14 0 -26 5 -26 5 0
9 14 9 30 0 29 1 30 50 30 47 0 50 -1 50 -26 l0 -26 29 25 c51 43 136 43 182
1 11 -10 19 -12 19 -6 0 6 -5 14 -10 17 -8 5 -7 12 2 23 11 15 11 15 -3 4 -14
-10 -18 -10 -23 3 -3 9 1 18 10 22 13 5 13 7 2 14 -11 7 -11 9 1 9 11 0 11 3
1 15 -10 12 -10 15 0 15 10 0 10 3 1 14 -10 11 -8 17 6 25 13 7 14 10 4 11
-11 0 -10 4 5 16 10 8 13 13 7 9 -16 -8 -18 36 -2 52 6 6 8 17 3 24 -11 18
-11 69 1 69 6 0 6 3 0 8 -12 8 -13 27 -3 38 4 4 3 13 -3 21 -9 9 -8 13 0 13 6
0 11 5 11 11 0 5 -3 8 -8 5 -4 -2 -7 14 -7 37 1 23 -4 45 -9 49 -7 5 -7 8 2 8
6 0 12 5 12 11 0 5 -6 7 -12 3 -10 -6 -10 -5 -1 7 10 12 9 20 -4 39 -12 17
-13 21 -2 15 12 -7 12 -6 1 7 -8 10 -9 19 -3 22 5 4 2 25 -9 53 -9 27 -15 61
-13 76 2 16 0 26 -5 23 -9 -6 -9 -5 -16 71 -2 28 -7 56 -10 62 -4 6 -2 11 5
11 7 0 4 7 -7 16 -10 8 -13 13 -6 9 6 -3 12 -1 12 4 0 6 -3 11 -8 11 -4 0 -8
30 -8 66 -1 45 -5 69 -15 75 -11 7 -11 9 -1 9 8 0 10 5 6 12 -11 18 -12 87 -1
85 5 -1 12 4 15 12 3 8 0 11 -7 7 -7 -5 -9 -1 -5 8 8 21 22 20 27 -1 2 -10 4
-6 3 8 -2 19 2 25 11 22 7 -3 13 1 13 8 0 11 3 11 10 -1 9 -13 10 -13 11 0 0
10 3 8 9 -5 8 -18 9 -18 9 5 1 20 3 22 11 10 9 -13 10 -13 10 0 0 9 9 16 20
17 13 1 18 -2 13 -10 -5 -8 -2 -8 9 1 16 13 48 7 48 -10 0 -5 6 -6 13 -2 9 6
9 5 0 -7 -9 -11 -8 -18 2 -32 11 -15 13 -8 15 50 1 38 3 79 5 93 1 14 3 177 4
363 l1 337 170 0 170 0 28 -46 c81 -136 435 -710 444 -719 5 -5 -1 12 -12 38
-12 27 -19 51 -16 54 3 3 -2 12 -12 20 -9 8 -11 12 -4 8 17 -9 15 6 -4 19 -14
10 -13 14 4 29 18 16 20 16 33 1 13 -16 12 -17 -8 -12 -13 4 -26 2 -29 -3 -3
-5 6 -9 21 -9 27 0 48 31 26 38 -9 3 -9 7 0 18 16 20 29 18 23 -3 -4 -14 -2
-13 7 2 7 11 13 26 14 34 0 8 15 22 32 32 18 10 32 15 30 11 -1 -4 3 -8 8 -9
6 -2 10 1 10 6 0 5 4 13 9 18 5 4 6 -7 2 -27 -3 -19 -3 -29 0 -22 5 10 9 10
20 1 10 -8 14 -8 14 0 0 6 5 11 11 11 5 0 8 -4 5 -9 -4 -5 -1 -11 6 -13 7 -3
8 -10 4 -17 -7 -11 -10 -11 -17 0 -7 12 -9 12 -9 1 0 -8 9 -16 20 -19 21 -6
27 -28 10 -38 -12 -7 -4 -25 11 -25 5 0 9 125 9 315 l0 316 133 -3 132 -3 12
-65 c6 -36 15 -95 18 -132 5 -52 10 -66 21 -61 12 4 14 -96 14 -721 l0 -726
-177 0 -178 1 -340 551 -340 552 -3 -552 -2 -552 -156 0 -156 0 7 -22 c3 -13
7 -29 7 -35 1 -7 6 -13 12 -13 6 0 4 -5 -4 -10 -11 -7 -12 -12 -3 -21 9 -9 9
-18 2 -32 -9 -15 -8 -18 2 -12 9 6 11 2 7 -13 -4 -12 0 -26 8 -33 8 -6 11 -15
8 -20 -3 -5 0 -9 6 -9 6 0 9 -4 5 -9 -3 -5 4 -12 15 -16 11 -4 18 -11 15 -16
-4 -5 -2 -9 4 -9 6 0 8 -7 5 -15 -4 -8 -1 -15 6 -15 6 0 10 -6 7 -12 -2 -7 3
-19 12 -26 12 -10 13 -12 1 -6 -13 7 -13 6 0 -11 38 -49 48 -55 61 -39 40 48
141 61 190 25 l29 -22 0 91 0 90 50 0 50 0 0 -255 0 -255 -49 0 c-45 0 -49 2
-44 21 6 21 5 21 -33 -5 -63 -42 -125 -35 -187 23 -24 22 -27 23 -21 6 4 -11
12 -26 18 -33 5 -8 9 -27 8 -43 -1 -16 2 -29 7 -29 5 0 8 -11 6 -25 -1 -14 1
-25 6 -25 4 0 11 -9 14 -20 4 -11 19 -35 35 -52 16 -17 26 -36 23 -41 -3 -6
-1 -7 4 -4 6 4 16 0 23 -8 7 -8 16 -12 21 -9 5 3 9 0 9 -6 0 -6 5 -8 10 -5 6
3 10 1 10 -5 0 -7 6 -10 14 -7 8 3 17 -1 20 -9 4 -11 11 -12 31 -4 36 14 45
13 45 -5 0 -17 16 -20 25 -5 3 6 11 10 16 10 6 0 7 -4 4 -10 -3 -6 1 -7 9 -4
9 3 16 12 16 20 0 8 7 14 16 14 8 0 13 4 9 9 -3 6 5 20 17 32 13 12 17 18 9
14 -9 -5 -12 -4 -7 3 4 7 14 12 22 12 8 0 14 5 14 11 0 5 -3 8 -7 6 -5 -3 -8
5 -8 18 0 13 3 21 7 19 12 -7 4 70 -7 78 -6 5 -5 11 4 17 12 8 11 12 -3 27
-16 16 -16 18 -2 26 9 5 16 14 16 20 0 7 -4 7 -13 0 -10 -8 -13 -6 -14 9 -1
11 2 17 7 14 5 -3 4 9 -1 27 -6 18 -11 53 -13 78 -1 25 -6 52 -11 59 -5 10 -4
12 3 7 17 -11 15 11 -5 42 -16 24 -16 26 -1 14 14 -11 16 -11 11 8 -3 11 -10
23 -16 27 -6 4 -7 1 -2 -7 5 -8 4 -11 -3 -7 -5 4 -8 16 -5 27 3 11 1 20 -3 20
-14 0 -11 127 4 141 6 7 12 21 12 31 0 10 11 24 25 30 14 6 25 15 25 20 0 13
-18 9 -23 -4 -3 -7 -4 -3 -4 8 1 13 6 20 13 17 7 -2 15 1 20 8 4 8 3 10 -4 5
-7 -4 -12 -2 -12 3 0 10 6 12 43 15 6 1 15 5 18 9 3 5 13 -7 22 -25 14 -27 17
-29 17 -11 0 12 -6 24 -12 26 -7 3 -8 6 -2 6 5 1 19 -6 30 -15 10 -8 12 -12 4
-8 -10 5 -9 0 4 -14 14 -17 16 -22 5 -22 -12 0 -12 -2 0 -9 8 -5 20 -7 28 -4
7 3 15 -2 19 -10 3 -10 14 -14 29 -11 13 2 27 -1 31 -7 5 -8 2 -10 -7 -5 -8 4
-6 1 4 -7 9 -8 17 -22 17 -31 0 -9 5 -16 11 -16 5 0 8 -4 5 -9 -4 -5 9 -25 27
-44 32 -32 47 -56 53 -85 6 -29 14 -43 23 -38 5 3 14 -1 21 -9 10 -12 10 -15
-1 -15 -8 0 -6 -5 6 -13 13 -10 15 -16 6 -21 -15 -10 -5 -25 25 -36 17 -7 22
-14 17 -26 -4 -12 -3 -15 5 -10 7 4 12 2 12 -4 0 -6 5 -8 10 -5 6 4 10 3 9 -2
-4 -22 2 -34 14 -27 8 6 8 3 -1 -9 -12 -14 -11 -16 7 -12 14 2 18 -1 14 -11
-3 -7 -9 -12 -13 -9 -5 3 -3 -6 3 -19 7 -15 17 -21 29 -18 14 3 17 0 12 -12
-3 -9 -1 -16 6 -16 6 0 8 -5 4 -12 -5 -8 -2 -9 12 -4 10 4 15 4 11 0 -4 -4 -1
-14 5 -22 7 -7 12 -26 13 -40 0 -16 5 -26 12 -25 7 2 10 -4 7 -12 -4 -10 0
-15 12 -15 16 0 17 -2 4 -10 -13 -8 -12 -10 3 -10 10 0 15 -4 12 -10 -3 -5 -1
-10 5 -10 6 0 9 -4 6 -9 -3 -5 7 -23 23 -40 15 -16 26 -33 23 -35 -2 -3 14
-23 37 -45 23 -22 42 -43 41 -46 -1 -25 1 -29 9 -17 6 10 11 6 19 -17 12 -33
25 -43 20 -15 -2 10 3 18 10 20 7 1 8 0 2 -3 -15 -7 -2 -23 15 -17 8 4 12 11
8 17 -4 6 -1 7 8 1 8 -5 17 -9 21 -9 3 0 10 -3 14 -7 3 -4 -3 -5 -15 -3 -12 2
-19 0 -16 -5 9 -15 40 -3 40 16 0 15 7 19 33 18 22 0 31 4 28 12 -3 7 6 20 20
28 13 9 25 14 25 11 1 -3 2 -11 3 -17 1 -7 9 -12 18 -12 14 1 15 -2 7 -17 -7
-14 -7 -19 3 -17 6 2 12 -3 13 -11 0 -8 6 -15 13 -17 7 -1 8 0 3 2 -6 3 -7 12
-4 20 4 12 8 11 20 -6 9 -13 21 -19 30 -16 10 4 13 2 10 -7 -3 -8 3 -13 14
-13 12 0 18 5 15 13 -3 7 0 15 6 19 6 4 8 3 4 -4 -9 -15 7 -23 24 -11 10 5 11
9 3 9 -7 0 -10 6 -7 14 4 9 -2 13 -18 11 -13 -1 -15 0 -5 2 9 2 15 8 12 12 -2
5 7 7 21 5 22 -2 23 0 12 13 -10 13 -10 17 0 20 6 3 9 9 6 14 -3 6 2 21 10 34
9 14 12 25 7 25 -6 0 -8 6 -6 13 11 29 13 67 4 67 -5 0 -9 5 -9 11 0 5 5 7 11
3 8 -4 8 0 0 15 -10 17 -9 22 4 27 8 3 12 10 9 15 -3 5 -11 6 -17 2 -7 -4 -6
1 2 11 13 15 13 19 0 27 -10 6 -10 9 -1 9 6 0 12 7 12 15 0 8 -5 15 -12 15 -6
0 -3 6 8 14 10 8 16 18 11 22 -4 4 -7 2 -7 -4 0 -7 -4 -12 -10 -12 -6 0 -6 9
0 24 5 15 5 27 -3 35 -8 8 -6 11 9 12 10 0 13 3 7 6 -21 8 -16 33 5 26 14 -5
14 -3 -3 11 -14 12 -16 19 -7 22 6 3 10 9 7 14 -3 5 4 11 15 15 11 3 20 11 20
17 0 7 -5 6 -14 -1 -11 -9 -16 -9 -22 0 -4 8 -3 9 4 5 10 -6 16 9 14 34 0 3
11 7 25 8 16 1 23 -3 21 -10 -3 -7 5 -20 16 -29 16 -13 26 -15 41 -7 16 9 18
8 8 -3 -18 -19 -16 -34 2 -19 13 11 14 10 9 -4 -3 -9 -10 -16 -16 -16 -5 0 -7
-4 -3 -10 3 -5 12 -7 20 -4 8 4 12 10 9 16 -3 5 3 4 15 -4 12 -7 21 -16 21
-21 0 -4 -5 -5 -12 -1 -7 4 -8 3 -4 -5 4 -6 11 -9 16 -6 5 3 11 1 14 -4 4 -5
2 -13 -4 -16 -8 -5 -8 -11 -1 -19 6 -7 9 -31 7 -54 -2 -23 0 -42 4 -42 9 0 29
-45 35 -80 3 -14 7 -35 9 -48 3 -12 12 -29 20 -38 9 -8 16 -20 16 -26 0 -6 9
-8 21 -5 15 4 19 2 15 -9 -3 -9 -1 -12 4 -9 5 3 20 8 32 10 23 4 23 4 3 -11
-19 -16 -19 -16 5 -9 14 4 30 12 35 18 7 7 6 8 -2 3 -7 -4 -13 -3 -13 3 0 6 9
15 21 21 11 7 18 17 16 25 -3 7 0 18 6 24 8 8 8 14 2 19 -12 9 -15 72 -3 72 4
0 8 -8 9 -17 0 -12 2 -13 6 -5 3 7 0 18 -5 25 -13 15 -17 86 -7 111 5 11 3 27
-4 38 -10 17 -9 23 6 40 9 11 13 19 8 18 -28 -6 -34 1 -29 33 4 17 13 43 21
56 8 13 10 21 5 17 -6 -3 -13 -2 -17 4 -3 5 -1 10 6 10 8 0 7 5 -2 17 -10 11
-10 14 -1 9 6 -4 12 -2 12 3 0 6 -4 11 -10 11 -15 0 -12 27 6 44 14 15 14 16
-3 16 -15 0 -16 2 -3 10 13 9 13 10 0 10 -13 0 -13 1 0 10 8 5 10 10 5 10 -6
0 -11 9 -11 20 0 11 4 20 8 20 4 0 8 5 8 11 0 5 -6 7 -12 3 -9 -5 -9 -3 1 9 7
9 11 29 8 43 -3 16 0 27 9 31 11 4 12 9 4 18 -8 9 -8 15 0 20 7 4 7 12 0 26
-9 15 -7 19 5 19 12 0 15 8 12 35 -3 20 0 38 6 42 6 4 7 1 2 -8 -5 -8 -4 -11
0 -7 13 12 16 60 3 52 -7 -5 -8 -2 -4 5 5 7 14 10 21 7 10 -4 11 2 5 26 -9 29
-8 30 18 24 21 -5 24 -4 12 4 -12 9 -12 13 -2 17 10 4 9 8 -4 17 -13 10 -14
15 -4 21 9 6 11 4 5 -5 -6 -9 -4 -11 4 -6 7 5 10 15 6 23 -5 14 -3 14 12 2 9
-8 14 -9 10 -2 -4 6 -2 15 4 19 8 4 7 9 -2 15 -11 7 -10 9 4 9 12 0 17 -8 18
-27 0 -27 1 -27 9 -5 5 12 7 29 4 37 -4 8 -1 15 6 15 6 0 9 -4 6 -9 -4 -5 -1
-11 6 -13 6 -2 12 -12 14 -21 1 -10 -2 -15 -9 -11 -7 3 -2 -3 11 -13 18 -15
20 -21 10 -31 -11 -11 -10 -16 3 -25 11 -9 16 -25 14 -50 -1 -21 1 -33 5 -27
12 19 19 -11 8 -32 -5 -12 -5 -18 2 -18 5 0 10 -4 10 -9 0 -5 8 -26 17 -47 9
-22 17 -41 18 -44 1 -3 7 -18 13 -33 7 -16 12 -39 12 -53 0 -13 5 -24 11 -24
6 0 9 -7 5 -15 -3 -8 -1 -15 4 -15 6 0 10 -7 10 -16 0 -9 5 -12 12 -8 7 5 9 2
6 -7 -12 -30 15 -54 60 -56 99 -5 122 -49 122 -238 l0 -135 -45 0 c-25 0 -48
-1 -51 -2 -3 -2 -7 56 -8 129 -3 147 -9 163 -62 163 -25 0 -38 -7 -50 -25 -8
-13 -13 -29 -10 -34 4 -5 2 -12 -4 -16 -6 -3 -10 -50 -10 -109 l0 -103 -41 -7
-41 -7 26 -22 c28 -24 34 -47 14 -47 -9 0 -8 -4 2 -10 8 -5 11 -10 6 -10 -4 0
-1 -11 8 -24 9 -14 13 -33 9 -43 -3 -10 -3 -15 2 -11 4 4 14 0 22 -10 8 -9 12
-12 9 -6 -3 7 1 15 10 18 11 4 15 2 11 -8 -4 -10 -1 -13 9 -9 7 3 14 15 15 27
0 11 3 16 5 9 6 -13 34 -6 34 7 0 5 -8 11 -17 13 -13 3 -14 5 -3 6 8 0 20 9
27 19 9 15 8 19 -5 19 -10 0 -24 -5 -32 -11 -13 -10 -13 -9 -1 7 13 16 13 20
0 27 -11 7 -11 11 -1 20 6 5 10 7 7 4 -4 -7 19 -34 29 -34 3 0 1 11 -4 24 -5
13 -6 27 -2 31 3 3 -2 3 -13 -1 -15 -6 -17 -4 -12 11 4 9 2 25 -5 33 -9 11 -9
14 -1 9 6 -4 15 -3 18 3 5 8 11 7 22 -1 13 -11 12 -15 -9 -32 -22 -17 -22 -18
-1 -8 16 8 24 8 29 -1 4 -6 3 -8 -3 -5 -6 4 -13 0 -17 -8 -6 -16 26 -39 39
-27 5 4 5 1 1 -6 -4 -7 -12 -10 -17 -7 -5 4 -9 1 -9 -4 0 -6 4 -11 8 -11 4 0
6 -16 4 -35 -2 -19 -8 -32 -13 -29 -5 3 -9 0 -9 -5 0 -6 7 -11 16 -11 9 0 18
-9 21 -20 3 -11 11 -20 19 -20 7 0 17 -6 21 -14 4 -7 19 -19 32 -26 15 -7 21
-8 17 -1 -11 18 5 13 21 -7 14 -16 14 -16 9 3 -5 17 -4 18 6 5 14 -17 52 -15
42 2 -3 5 3 16 14 24 12 8 19 21 16 28 -3 8 0 17 7 22 7 4 10 3 6 -3 -4 -6 0
-14 9 -17 9 -4 13 -2 8 5 -4 6 0 15 7 20 12 7 11 9 -1 9 -9 0 -16 10 -17 22
-2 22 -1 22 12 5 11 -16 13 -13 11 24 -2 31 0 38 8 27 9 -13 14 -12 31 5 11
11 14 16 6 12 -11 -6 -13 -4 -8 8 5 14 2 15 -21 6 l-27 -9 25 20 c14 11 30 18
37 15 17 -6 58 17 57 33 -1 6 -2 19 -3 27 -1 9 -7 12 -18 8 -11 -4 -14 -3 -9
6 5 7 20 10 37 7 16 -2 27 0 23 5 -3 5 -9 7 -14 4 -4 -3 -14 2 -21 11 -7 8 -8
14 -3 13 23 -4 35 2 28 14 -5 8 -2 8 9 -2 12 -9 17 -10 17 -2 0 6 -7 14 -15
17 -8 4 -12 10 -9 16 3 5 13 4 22 -4 10 -7 14 -8 10 -4 -4 5 -3 15 3 23 6 7 7
13 2 13 -5 0 -10 7 -10 15 0 9 6 14 14 11 8 -3 11 -2 8 3 -3 5 -1 12 4 16 6 3
8 12 4 20 -3 8 -1 15 5 15 5 0 12 13 14 29 2 17 1 28 -4 25 -4 -3 -8 -1 -8 5
0 5 5 11 12 13 7 3 9 11 3 24 -12 29 -14 45 -5 39 5 -3 11 -1 15 5 3 5 0 10
-8 10 -7 0 -14 7 -14 15 0 8 4 12 9 9 4 -3 8 2 8 10 0 9 -4 16 -10 16 -5 0
-10 5 -10 11 0 5 5 7 10 4 6 -3 10 -1 10 4 0 6 -5 11 -12 11 -6 0 -8 3 -5 6 3
4 2 15 -4 25 -7 14 -6 19 3 19 9 0 9 3 -2 10 -12 7 -12 10 -1 10 8 0 11 6 7
17 -4 9 -9 32 -12 52 -3 20 -7 52 -11 71 -3 19 -6 42 -8 50 -6 37 -17 76 -26
93 -6 11 -12 47 -15 80 -3 34 -9 66 -15 72 -8 7 -9 -18 -3 -85 15 -173 18
-161 -51 -183 -79 -24 -215 -33 -286 -18 -78 16 -158 66 -186 116 -41 73 -46
129 -44 512 l1 362 -77 3 -78 3 -1 95 -2 95 36 38 c31 31 42 37 79 37 l43 0 0
54 c0 71 30 136 86 188 65 60 82 87 87 143 4 41 3 47 -6 32 -7 -11 -26 -39
-43 -63 l-31 -44 -12 55 c-16 73 -58 117 -130 139 -30 9 -71 16 -91 16 l-37 0
7 38 c3 20 15 52 25 71 28 56 36 91 19 91 -8 0 -14 5 -14 10 0 6 4 10 8 10 4
0 7 12 6 28 -1 15 -2 43 -4 62 l-2 35 -12 -45 -12 -45 -23 50 c-42 95 -99 135
-194 135 -94 0 -190 -47 -222 -110 -17 -32 -19 -105 -6 -164 l9 -39 -48 6
c-89 11 -165 66 -189 136 -34 103 21 260 122 347 40 33 164 82 195 75 16 -3 6
39 -12 52 -7 5 -4 7 8 5 12 -2 20 4 22 15 2 14 -1 16 -11 7 -10 -9 -13 -7 -10
7 1 10 7 17 13 16 5 -1 8 8 5 20 -3 14 -1 18 4 10 6 -8 12 -4 20 13 6 13 8 24
5 24 -4 0 -7 11 -7 25 0 14 5 23 10 21 6 -2 9 17 7 51 -2 29 1 59 7 67 7 9 7
16 -1 24 -9 9 -9 12 1 12 7 0 9 5 6 10 -3 6 -2 10 3 10 5 0 7 20 6 45 -2 24 1
47 7 50 5 4 9 15 9 26 0 11 -4 18 -9 15 -10 -6 -9 12 0 29 4 6 5 18 4 28 -2 9
1 17 6 17 5 0 9 5 9 11 0 5 -6 7 -12 3 -10 -6 -10 -4 0 8 17 21 25 68 12 68
-5 0 -10 5 -10 11 0 5 5 7 10 4 7 -4 9 10 6 39 -2 28 0 46 6 46 6 0 4 8 -3 17
-8 10 -9 14 -2 10 6 -4 14 -3 18 3 3 5 0 10 -7 10 -10 0 -10 2 0 9 12 7 12 12
1 29 -11 17 -11 24 -1 34 15 15 16 32 0 22 -7 -5 -8 -3 -2 7 12 20 14 39 3 39
-5 0 -9 5 -9 11 0 6 7 9 15 6 11 -5 12 -1 5 18 -7 17 -6 25 2 25 7 0 9 13 5
35 -3 19 -1 37 4 41 6 3 4 16 -6 31 -10 14 -12 22 -6 19 14 -9 14 0 1 25 -8
14 -7 19 1 19 7 0 9 9 4 28 -4 15 -8 42 -8 60 0 17 -4 32 -8 32 -4 0 -7 10 -7
23 0 49 -5 87 -12 87 -4 0 -7 6 -8 13 -3 54 -30 185 -42 207 -6 11 -8 25 -5
30 3 5 1 11 -5 15 -5 3 -10 21 -10 38 0 18 -7 51 -15 75 -9 24 -17 53 -19 65
-3 12 -5 23 -7 25 -1 1 -2 5 -4 10 -1 4 -4 14 -8 22 -5 13 -29 94 -32 110 0 3
-6 14 -13 25 l-13 20 5 -20z m-503 -1789 c143 -31 253 -115 283 -217 19 -62
20 -100 5 -169 l-11 -51 -28 38 c-45 62 -91 100 -154 129 -51 23 -68 26 -130
22 -84 -6 -147 -31 -205 -84 -67 -60 -85 -104 -86 -205 l0 -86 -43 35 c-49 40
-105 114 -127 166 -21 50 -19 142 5 194 26 58 144 180 198 204 85 38 186 46
293 24z m-3008 -171 c112 -29 182 -77 219 -149 17 -33 19 -53 15 -110 -5 -81
-40 -175 -52 -141 -3 11 -13 35 -21 53 -51 118 -325 78 -394 -57 -24 -48 -42
-157 -33 -201 6 -32 5 -33 -23 -26 -71 18 -133 79 -153 151 -16 60 -13 104 9
135 37 51 60 114 60 163 0 57 20 91 80 132 88 61 186 78 293 50z m2341 -24
c86 -42 126 -88 126 -145 0 -53 19 -110 55 -165 24 -35 27 -49 23 -94 -8 -94
-60 -164 -150 -201 l-37 -16 1 73 c0 167 -55 245 -201 283 -71 18 -133 14
-181 -11 -33 -17 -51 -44 -60 -95 l-7 -35 -23 50 c-25 54 -37 142 -26 200 9
44 65 109 120 137 131 68 249 74 360 19z m1240 -59 c3 -5 -1 -9 -9 -9 -8 0
-15 4 -15 9 0 4 4 8 9 8 6 0 12 -4 15 -8z m-474 -52 c82 -42 116 -130 107
-275 -16 -225 -111 -460 -236 -580 -40 -38 -41 -38 -41 -15 -1 83 -77 349
-155 537 -25 59 -43 108 -41 110 8 8 57 -41 85 -86 36 -56 92 -191 112 -268 7
-29 16 -53 20 -53 10 0 22 278 17 384 -6 100 -15 127 -66 199 -19 26 -32 50
-30 52 2 3 22 9 44 14 53 14 137 5 184 -19z m-3035 -182 c35 -16 40 -41 39
-213 -1 -175 -23 -285 -79 -400 -35 -71 -70 -124 -77 -115 -2 3 -16 49 -31
103 -15 53 -50 158 -77 232 -47 127 -61 195 -41 195 13 0 88 -149 121 -239
l28 -76 7 39 c13 66 -1 205 -31 301 -15 50 -28 106 -28 125 -1 33 1 36 44 47
59 15 93 16 125 1z m2098 -7 c35 -14 35 -31 -4 -151 -32 -99 -50 -267 -34
-326 6 -27 9 -23 35 47 33 90 108 239 121 239 20 0 6 -68 -42 -197 -28 -76
-63 -182 -77 -235 -15 -54 -31 -97 -36 -95 -19 6 -88 135 -110 207 -35 111
-49 224 -44 358 6 130 9 144 41 161 25 12 108 8 150 -8z m1614 -61 c38 -14 49
-37 64 -140 17 -116 7 -270 -21 -345 -27 -72 -75 -148 -119 -193 -18 -17 -30
-32 -27 -32 4 0 0 -13 -9 -30 -10 -19 -15 -57 -15 -110 l0 -80 95 0 95 0 -6
-27 c-11 -50 -25 -108 -31 -128 -5 -18 -2 -17 28 6 61 46 59 47 59 -35 l0 -76
-120 0 -120 0 0 -490 0 -490 -158 0 c-87 0 -162 -3 -165 -7 -4 -3 -2 -12 5
-20 6 -8 12 -41 13 -74 0 -33 5 -63 11 -67 6 -4 10 -15 8 -25 -1 -9 1 -15 5
-13 4 3 13 1 20 -3 11 -7 0 -60 -49 -260 l-62 -251 -57 0 -57 0 -44 168 c-24
92 -46 173 -50 180 -4 8 -26 -57 -48 -145 -23 -87 -45 -168 -48 -180 -6 -21
-13 -23 -65 -23 -33 0 -59 2 -59 5 0 3 -25 111 -55 240 -30 128 -55 238 -55
244 0 6 21 11 49 11 39 0 51 -4 55 -17 2 -10 19 -85 37 -167 18 -82 35 -143
38 -135 2 8 23 84 46 169 l41 155 55 5 54 5 1 52 c1 29 -3 50 -7 47 -5 -3 -5
6 1 20 7 19 6 26 -3 27 -9 0 -9 2 0 6 10 3 10 10 2 25 -8 15 -8 19 0 14 6 -4
11 0 11 9 0 9 -3 14 -8 11 -4 -2 -8 11 -8 29 0 19 4 33 9 32 5 -1 11 6 12 16
2 9 0 17 -4 17 -4 0 -7 13 -6 30 0 20 5 30 15 30 12 0 13 2 1 9 -8 6 -10 14
-5 22 5 8 10 23 11 34 3 17 1 18 -8 5 -8 -12 -9 -10 -4 10 10 38 12 89 3 84
-4 -3 -7 6 -6 20 1 15 5 26 8 26 3 0 5 11 5 25 0 14 -2 25 -5 25 -4 0 -4 40
-1 84 1 4 7 6 14 3 10 -4 13 2 9 19 -2 13 -8 26 -12 29 -5 3 -6 -5 -4 -17 4
-21 4 -21 -5 -3 -5 13 -5 25 2 33 6 8 12 24 14 35 3 22 2 22 -12 3 -8 -11 -15
-15 -15 -9 0 15 40 49 41 35 3 -26 4 -31 11 -37 6 -7 5 3 -5 59 -1 6 -6 14
-11 17 -4 4 -3 10 3 13 7 5 14 -4 17 -23 4 -16 12 -32 20 -35 8 -3 14 -11 14
-19 0 -7 9 -13 20 -13 11 0 20 4 20 9 0 4 4 6 10 2 5 -3 7 -12 3 -20 -3 -8 0
-15 5 -15 6 0 9 -10 7 -21 -3 -12 -1 -27 3 -33 3 -6 8 -22 10 -36 2 -14 7 -29
12 -34 5 -5 9 106 10 263 l1 271 -91 0 -90 0 0 130 0 130 90 0 90 0 0 58 c0
193 37 307 118 365 50 36 128 71 141 63 11 -7 32 -110 40 -191 5 -64 8 -70 30
-73 l24 -4 -7 81 c-7 92 -50 266 -95 389 -36 96 -38 112 -13 112 40 0 84 -85
129 -245 l28 -99 9 69 c14 105 -5 223 -50 313 -20 41 -34 75 -32 76 5 5 81 24
99 25 9 1 30 -4 46 -9z m-5241 -382 c4 -7 3 -8 -4 -4 -7 4 -12 2 -12 -5 0 -7
-3 -10 -6 -6 -6 5 3 27 11 27 2 0 7 -5 11 -12z m3429 -88 c3 -5 -4 -6 -15 -3
-11 3 -22 9 -25 13 -3 5 4 6 15 3 11 -3 22 -9 25 -13z m2063 0 c49 -30 76 -97
70 -175 -8 -90 -48 -165 -138 -259 l-77 -79 -6 199 c-5 189 1 296 16 249 3
-11 13 -81 23 -155 17 -131 18 -134 31 -102 18 44 32 157 33 260 0 45 3 82 8
82 4 0 22 -9 40 -20z m-4268 -145 l0 -155 -165 0 -165 0 0 155 0 155 165 0
165 0 0 -155z m-891 -49 c15 -18 15 -18 -6 -5 -13 8 -23 23 -22 34 0 14 2 16
6 5 3 -8 13 -24 22 -34z m1811 -156 c0 -5 -5 -10 -11 -10 -5 0 -7 5 -4 10 3 6
8 10 11 10 2 0 4 -4 4 -10z m-2124 -12 c4 -6 3 -8 -4 -4 -5 3 -13 0 -15 -6 -3
-8 -6 -6 -6 5 -1 19 14 23 25 5z m2166 -20 c-8 -8 -9 -15 -1 -25 7 -8 8 -13 1
-13 -5 0 -13 8 -17 18 -7 19 -4 28 8 25 4 -2 7 2 7 9 0 6 3 8 7 5 4 -4 1 -13
-5 -19z m-310 -47 c-4 -11 -7 -10 -13 5 -12 29 -10 36 5 22 7 -7 11 -19 8 -27z
m343 30 c3 -5 2 -12 -3 -15 -5 -3 -9 1 -9 9 0 17 3 19 12 6z m-337 -76 c-3 -3
-9 2 -12 12 -6 14 -5 15 5 6 7 -7 10 -15 7 -18z m-1014 -1 c3 -8 2 -12 -4 -9
-6 3 -10 10 -10 16 0 14 7 11 14 -7z m-74 -64 c0 -5 -2 -10 -4 -10 -3 0 -8 5
-11 10 -3 6 -1 10 4 10 6 0 11 -4 11 -10z m3835 -429 c3 -5 2 -12 -3 -15 -5
-3 -9 1 -9 9 0 17 3 19 12 6z m65 -81 c13 -24 13 -40 0 -40 -6 0 -10 8 -8 18
2 11 -3 16 -13 14 -11 -1 -18 7 -21 22 -4 22 -3 24 13 15 10 -5 23 -18 29 -29z
m820 -330 c0 -5 -5 -10 -11 -10 -5 0 -7 5 -4 10 3 6 8 10 11 10 2 0 4 -4 4
-10z m-6 -59 c3 -5 -3 -11 -15 -14 -16 -4 -18 -3 -8 9 13 16 16 17 23 5z
m-154 -322 c0 -6 -4 -7 -10 -4 -5 3 -10 11 -10 16 0 6 5 7 10 4 6 -3 10 -11
10 -16z m-1536 -81 c3 1 6 0 6 -3 0 -3 -3 -4 -7 -4 -24 4 -33 13 -33 33 1 20
1 20 15 -4 7 -14 16 -24 19 -22z m-3690 -74 c11 -4 16 -19 16 -50 l0 -44 -50
0 -50 0 0 50 0 50 34 0 c19 0 41 -3 50 -6z m5086 -44 l0 -50 -50 0 -50 0 0 44
c0 49 6 54 63 55 l37 1 0 -50z m-5287 -92 c-2 -5 -13 -8 -24 -8 -13 0 -18 -4
-13 -12 4 -7 3 -8 -5 -4 -18 11 8 39 28 31 12 -5 13 -3 4 6 -6 6 -9 19 -5 28
5 13 7 11 12 -9 4 -14 5 -28 3 -32z m4966 25 c-10 -11 -10 -14 -1 -9 7 4 12 2
12 -8 0 -8 6 -17 13 -19 7 -4 6 -6 -4 -6 -9 -1 -23 -9 -30 -18 -10 -11 -10
-14 -1 -9 6 4 12 2 12 -3 0 -12 -23 -15 -33 -4 -4 3 -2 12 4 20 8 9 8 13 1 13
-7 0 -9 7 -5 17 5 12 3 14 -8 8 -8 -5 -5 1 5 13 24 27 56 32 35 5z m321 -207
l0 -184 -47 -4 c-27 -3 -50 -3 -51 -2 -6 4 -2 356 4 366 3 4 25 8 50 8 l44 0
0 -184z m-300 144 c0 -5 -2 -10 -4 -10 -3 0 -8 5 -11 10 -3 6 -1 10 4 10 6 0
11 -4 11 -10z m-3532 -58 c6 -18 -15 -14 -22 4 -4 10 -1 14 6 12 6 -2 14 -10
16 -16z m4336 -11 c24 -10 28 -24 13 -48 -5 -7 -6 -17 -3 -22 3 -5 -8 -14 -26
-20 -42 -15 -61 -14 -55 3 3 7 1 18 -5 24 -6 6 -6 12 1 16 5 4 8 13 4 21 -3 9
1 15 11 15 9 0 16 5 16 10 0 12 12 13 44 1z m-724 -41 c0 -5 -2 -10 -4 -10 -3
0 -8 5 -11 10 -3 6 -1 10 4 10 6 0 11 -4 11 -10z m-4586 -179 c-9 -9 -34 -9
-34 -1 0 5 9 8 20 7 10 -1 17 -3 14 -6z m261 -20 c-3 -14 -8 -33 -11 -42 -2
-9 1 -16 8 -17 52 -4 56 -6 47 -24 -5 -9 -14 -20 -20 -23 -7 -5 -2 -17 13 -33
16 -19 17 -22 4 -12 -18 14 -19 13 -13 -3 6 -16 2 -15 -22 5 -17 14 -24 26
-17 30 6 4 4 10 -8 14 -14 5 -15 9 -4 15 7 5 20 6 30 3 9 -2 19 0 23 6 4 7 1
10 -6 9 -8 -2 -24 0 -36 5 -19 6 -21 11 -13 32 7 17 6 24 -3 25 -9 0 -9 2 0 5
7 3 10 11 7 18 -3 7 2 13 11 13 12 0 15 -7 10 -26z m5411 -1 c15 0 19 -12 7
-23 -7 -8 -33 23 -32 38 0 6 3 4 6 -2 2 -7 11 -13 19 -13z m-5456 -230 c0 -5
-8 -10 -17 -10 -15 0 -16 2 -3 10 19 12 20 12 20 0z m-423 -42 c-3 -8 -6 -5
-6 6 -1 11 2 17 5 13 3 -3 4 -12 1 -19z m3263 -2 c0 -2 -8 -10 -17 -17 -16
-13 -17 -12 -4 4 13 16 21 21 21 13z m64 -21 c-4 -8 -8 -15 -10 -15 -2 0 -4 7
-4 15 0 8 4 15 10 15 5 0 7 -7 4 -15z m-3964 -60 c7 -8 8 -15 2 -15 -5 0 -15
7 -22 15 -7 8 -8 15 -2 15 5 0 15 -7 22 -15z"/>
<path d="M7394 2175 c3 -21 16 -31 16 -12 0 9 -4 18 -9 21 -5 4 -8 -1 -7 -9z"/>
<path d="M7247 1505 c6 -32 11 -41 17 -34 2 2 -2 18 -10 34 l-13 30 6 -30z"/>
<path d="M7267 1423 c3 -16 16 -68 28 -118 21 -87 22 -89 30 -52 5 25 3 42 -5
52 -6 8 -9 19 -5 25 3 5 2 10 -4 10 -6 0 -18 25 -26 55 -17 56 -31 78 -18 28z"/>
<path d="M3160 6249 c0 -5 5 -7 10 -4 6 3 10 8 10 11 0 2 -4 4 -10 4 -5 0 -10
-5 -10 -11z"/>
<path d="M3146 6105 c-8 -108 4 -280 30 -415 16 -86 32 -138 33 -108 1 9 22
47 47 83 25 37 40 63 33 59 -9 -5 -10 -2 -6 10 4 9 3 14 -2 11 -5 -3 -12 3
-15 12 -7 23 -6 39 3 36 4 -1 8 8 8 20 2 20 1 20 -8 5 -15 -27 -30 -22 -23 7
4 16 2 25 -6 25 -7 0 -10 8 -7 20 3 11 -1 27 -9 34 -17 17 -19 30 -3 20 8 -4
8 0 0 15 -6 11 -13 35 -14 53 -2 18 -6 39 -11 46 -4 7 -2 12 4 12 8 0 8 6 0
20 -6 11 -8 20 -5 20 3 0 -2 11 -11 25 -9 14 -14 32 -10 40 3 8 1 15 -4 15 -5
0 -10 8 -12 18 -3 9 -8 -28 -12 -83z"/>
<path d="M3300 5870 c0 -5 5 -10 11 -10 5 0 7 5 4 10 -3 6 -8 10 -11 10 -2 0
-4 -4 -4 -10z"/>
<path d="M2725 5795 c-21 -29 -24 -39 -15 -50 7 -8 13 -46 14 -84 1 -85 12
-101 20 -29 11 113 17 198 13 198 -3 0 -17 -16 -32 -35z"/>
<path d="M4230 5026 c0 -7 7 -13 15 -13 8 0 15 4 15 8 0 4 -7 9 -15 13 -9 3
-15 0 -15 -8z"/>
<path d="M5881 4444 c0 -11 3 -14 6 -6 3 7 2 16 -1 19 -3 4 -6 -2 -5 -13z"/>
<path d="M2565 3940 c3 -5 8 -10 11 -10 2 0 4 5 4 10 0 6 -5 10 -11 10 -5 0
-7 -4 -4 -10z"/>
<path d="M2523 3863 c-47 -85 -73 -245 -55 -348 l8 -50 19 75 c16 65 33 121
60 195 l8 20 -17 -20 c-10 -11 -15 -14 -11 -7 4 7 0 12 -9 12 -13 0 -14 5 -6
26 6 14 8 30 5 34 -3 5 3 13 12 19 10 6 14 11 9 11 -5 0 -1 9 9 20 17 18 17
22 4 36 -13 13 -18 10 -36 -23z"/>
<path d="M2585 3829 c-11 -16 -1 -19 13 -3 7 8 8 14 3 14 -5 0 -13 -5 -16 -11z"/>
<path d="M2635 3600 c3 -5 11 -10 16 -10 6 0 7 5 4 10 -3 6 -11 10 -16 10 -6
0 -7 -4 -4 -10z"/>
<path d="M2148 3513 c6 -2 18 -2 25 0 6 3 1 5 -13 5 -14 0 -19 -2 -12 -5z"/>
<path d="M2110 3500 c-9 -6 -10 -10 -3 -10 6 0 15 5 18 10 8 12 4 12 -15 0z"/>
<path d="M2201 3380 c0 -49 2 -70 8 -60 6 8 7 18 5 22 -3 4 -1 8 3 8 5 0 8 16
9 35 0 19 -3 35 -7 35 -4 0 -10 8 -12 18 -3 9 -5 -17 -6 -58z"/>
<path d="M2215 3243 c3 -34 11 -77 20 -95 l15 -33 -4 63 c-2 34 -9 68 -14 75
-5 7 -12 21 -16 32 -3 11 -3 -8 -1 -42z"/>
<path d="M8520 3092 c0 -67 3 -82 15 -82 11 0 14 7 10 28 -3 15 -8 50 -11 77
-9 75 -14 68 -14 -23z"/>
<path d="M2300 3056 l0 -97 -37 30 c-21 17 -58 56 -83 87 -52 65 -62 57 -27
-20 14 -30 23 -57 19 -60 -3 -3 1 -6 8 -6 7 0 10 -3 7 -7 -4 -3 0 -11 9 -17 8
-6 16 -21 17 -34 0 -12 5 -22 10 -22 4 0 6 -4 2 -9 -3 -5 -1 -12 5 -16 5 -3
10 0 10 7 0 7 4 19 9 27 7 11 19 6 58 -25 26 -21 53 -42 60 -47 8 -6 7 8 -3
45 -8 29 -16 58 -17 64 -2 7 -8 18 -15 26 -6 8 -9 24 -5 36 3 12 1 22 -5 22
-5 0 -10 23 -11 52 -2 92 -11 64 -11 -36z"/>
<path d="M4546 3085 c-3 -8 -1 -15 4 -15 6 0 10 7 10 15 0 8 -2 15 -4 15 -2 0
-6 -7 -10 -15z"/>
<path d="M4702 3078 c5 -15 46 -20 53 -7 3 4 -6 6 -21 3 -16 -3 -23 -1 -19 6
3 5 1 10 -5 10 -7 0 -10 -6 -8 -12z"/>
<path d="M4765 3039 c-11 -16 -1 -19 13 -3 7 8 8 14 3 14 -5 0 -13 -5 -16 -11z"/>
<path d="M2600 3000 c0 -23 25 -100 32 -100 11 0 3 63 -11 89 -13 23 -21 27
-21 11z"/>
<path d="M6551 2971 c-7 -5 -12 -14 -10 -20 2 -6 10 -2 17 9 14 22 13 23 -7
11z"/>
<path d="M3500 2905 c0 -2 7 -8 15 -15 12 -10 15 -10 15 2 0 8 -7 15 -15 15
-8 0 -15 -1 -15 -2z"/>
<path d="M3405 2879 c-4 -6 -5 -12 -2 -15 2 -3 7 2 10 11 7 17 1 20 -8 4z"/>
<path d="M2630 2870 c0 -5 5 -10 11 -10 5 0 7 5 4 10 -3 6 -8 10 -11 10 -2 0
-4 -4 -4 -10z"/>
<path d="M2647 2843 c-3 -5 30 -148 72 -318 43 -171 81 -303 84 -295 13 38 14
60 1 71 -8 6 -12 15 -9 19 3 5 0 21 -7 37 -6 15 -13 41 -15 57 -3 15 -9 40
-15 55 -6 14 -12 39 -14 54 -2 16 -9 38 -16 50 -6 12 -13 29 -14 37 -8 52 -62
241 -67 233z"/>
<path d="M6670 2831 c0 -6 5 -13 10 -16 6 -3 10 1 10 9 0 9 -4 16 -10 16 -5 0
-10 -4 -10 -9z"/>
<path d="M3522 2770 c0 -14 2 -19 5 -12 2 6 2 18 0 25 -3 6 -5 1 -5 -13z"/>
<path d="M4696 2765 c-55 -19 -107 -65 -133 -116 -34 -69 -43 -184 -43 -546
l0 -333 -153 0 c-85 0 -157 -3 -160 -6 -3 -4 -1 -16 4 -27 6 -11 12 -48 12
-83 1 -45 6 -64 15 -64 7 0 12 -8 10 -17 -2 -10 3 -17 10 -16 6 2 12 -6 12
-18 0 -13 4 -18 13 -13 7 5 7 1 -3 -12 -8 -10 -11 -16 -6 -12 11 9 35 -14 29
-28 -2 -7 1 -15 6 -19 6 -3 9 -11 6 -16 -4 -5 2 -9 12 -9 15 0 16 -2 3 -10
-11 -7 -11 -10 -2 -10 7 0 18 -13 23 -30 6 -17 16 -27 22 -23 6 4 8 0 4 -10
-3 -10 -2 -17 3 -17 6 0 10 -6 10 -14 0 -22 19 -29 37 -14 12 9 15 9 9 1 -5
-9 -1 -13 11 -13 15 0 16 -2 3 -11 -11 -8 -8 -9 13 -4 21 4 27 3 21 -6 -5 -8
-2 -10 7 -7 8 3 22 1 30 -6 16 -11 19 -17 19 -36 0 -7 6 -7 20 0 10 6 17 16
15 23 -4 8 10 13 46 14 29 1 57 7 63 14 8 9 8 10 -1 5 -7 -4 -13 -4 -13 1 0
12 70 54 80 48 5 -3 11 -1 15 5 4 6 -11 10 -39 10 -35 0 -48 -5 -56 -20 -9
-17 -17 -19 -53 -14 -23 4 -44 8 -46 10 -2 2 2 18 9 35 14 33 62 69 92 69 12
0 18 8 18 23 -1 28 8 140 10 147 1 3 1 15 0 27 -1 12 4 31 10 42 8 16 8 21 -2
21 -10 0 -10 2 1 9 7 5 11 13 7 19 -3 6 -1 14 5 18 8 5 8 8 0 14 -15 9 -2 42
13 33 6 -3 4 2 -5 13 -19 22 -20 71 -1 82 10 7 11 27 3 85 0 5 -7 5 -13 1 -10
-5 -10 -4 -2 5 13 14 6 73 -8 65 -6 -4 -8 1 -4 14 4 11 2 23 -4 27 -7 4 -7 12
0 26 6 10 7 19 3 19 -4 0 -9 11 -9 26 -2 23 -1 24 12 7 13 -17 14 -17 7 2 -3
11 -11 23 -17 27 -7 5 -7 8 2 8 6 0 12 5 12 11 0 5 -6 7 -12 3 -9 -5 -9 -2 1
9 7 9 9 17 3 17 -5 0 -8 9 -5 20 3 11 10 20 16 20 6 0 2 7 -9 16 -10 8 -14 13
-7 10 6 -4 15 -1 19 6 11 18 12 48 2 48 -4 0 -8 5 -8 10 0 6 6 9 13 8 6 -2 11
3 9 10 -1 6 3 12 8 12 6 0 -3 20 -20 45 -24 35 -27 45 -15 45 9 0 14 -4 10 -9
-3 -5 -1 -12 5 -16 5 -3 10 -2 10 4 0 6 8 8 18 5 11 -4 8 1 -8 15 -14 11 -29
21 -35 21 -5 0 -2 5 8 11 9 6 14 16 11 22 -4 7 -4 9 1 5 4 -4 17 -3 28 3 14 8
18 8 13 0 -4 -6 -2 -11 3 -11 6 0 11 8 12 18 0 11 2 12 6 4 8 -19 -17 -44 -32
-32 -8 7 -12 5 -12 -5 0 -8 4 -12 9 -9 4 3 8 -3 9 -13 0 -14 2 -14 9 5 5 12
17 22 26 22 11 0 14 5 10 17 -6 15 -5 16 11 1 10 -8 25 -18 33 -21 10 -4 8 -6
-7 -6 -12 -1 -24 -5 -27 -10 -3 -4 5 -7 17 -7 31 3 39 -3 24 -19 -7 -7 -16 -9
-22 -5 -7 6 -11 1 -12 -13 -1 -12 1 -17 5 -12 11 16 40 11 59 -9 10 -10 12
-16 6 -12 -19 11 -16 -1 9 -29 17 -20 24 -23 37 -13 9 7 13 8 9 4 -4 -5 -2
-16 5 -24 9 -13 9 -14 0 -8 -19 11 -15 -2 8 -27 11 -12 18 -30 15 -39 -2 -10
1 -18 6 -18 7 0 9 60 6 183 -5 193 -14 235 -61 286 -46 50 -147 66 -231 36z
m211 -311 c-3 -3 -12 -4 -19 -1 -8 3 -5 6 6 6 11 1 17 -2 13 -5z m18 -53 c3
-5 2 -12 -3 -15 -5 -3 -9 1 -9 9 0 17 3 19 12 6z m-195 -11 c0 -5 -7 -10 -16
-10 -8 0 -12 5 -9 10 3 6 10 10 16 10 5 0 9 -4 9 -10z m0 -491 c0 -5 -4 -9 -8
-9 -5 0 -9 7 -9 15 0 8 4 12 9 9 4 -3 8 -9 8 -15z m-165 -659 c3 -5 -1 -10
-10 -10 -9 0 -13 5 -10 10 3 6 8 10 10 10 2 0 7 -4 10 -10z"/>
<path d="M8522 2405 l3 -347 24 -19 c26 -21 76 -24 131 -9 56 15 70 30 58 60
-16 37 -17 48 -8 81 5 16 5 27 0 24 -13 -8 -6 21 9 39 7 9 9 16 4 16 -6 0 -8
11 -5 25 2 14 8 23 11 20 4 -2 7 11 6 30 0 19 3 35 8 35 5 0 4 6 -2 14 -7 8
-9 29 -5 50 3 22 1 43 -6 51 -7 8 -8 20 -4 27 5 7 7 21 5 32 -1 10 2 15 7 12
12 -7 6 102 -7 118 -5 6 -7 26 -5 44 l4 32 -99 0 c-55 0 -107 3 -116 6 -14 6
-16 -24 -13 -341z"/>
<path d="M4785 2491 c-3 -5 -2 -12 3 -15 5 -3 9 1 9 9 0 17 -3 19 -12 6z"/>
<path d="M4795 2449 c-4 -6 -5 -12 -2 -15 2 -3 7 2 10 11 7 17 1 20 -8 4z"/>
<path d="M2050 2250 c0 -5 5 -10 11 -10 5 0 7 5 4 10 -3 6 -8 10 -11 10 -2 0
-4 -4 -4 -10z"/>
<path d="M1746 2217 c3 -10 9 -15 12 -12 3 3 0 11 -7 18 -10 9 -11 8 -5 -6z"/>
<path d="M1755 2180 c3 -5 8 -10 11 -10 2 0 4 5 4 10 0 6 -5 10 -11 10 -5 0
-7 -4 -4 -10z"/>
<path d="M4981 2174 c0 -11 3 -14 6 -6 3 7 2 16 -1 19 -3 4 -6 -2 -5 -13z"/>
<path d="M4982 1960 c0 -14 2 -19 5 -12 2 6 2 18 0 25 -3 6 -5 1 -5 -13z"/>
<path d="M4981 1894 c0 -11 3 -14 6 -6 3 7 2 16 -1 19 -3 4 -6 -2 -5 -13z"/>
<path d="M4720 1810 c0 -5 5 -10 11 -10 5 0 7 5 4 10 -3 6 -8 10 -11 10 -2 0
-4 -4 -4 -10z"/>
<path d="M6324 1651 c4 -5 0 -11 -6 -14 -7 -2 -9 -8 -5 -13 4 -5 12 -2 17 6
13 20 12 30 -1 30 -5 0 -8 -4 -5 -9z"/>
<path d="M2586 1371 c-4 -5 3 -7 14 -4 23 6 26 13 6 13 -8 0 -17 -4 -20 -9z"/>
<path d="M3681 1364 c0 -11 3 -14 6 -6 3 7 2 16 -1 19 -3 4 -6 -2 -5 -13z"/>
<path d="M2546 1347 c3 -10 9 -15 12 -12 3 3 0 11 -7 18 -10 9 -11 8 -5 -6z"/>
<path d="M5333 1340 c-36 -15 -43 -43 -43 -169 l0 -121 -27 0 c-48 0 -56 -12
-36 -50 9 -19 16 -51 14 -72 -1 -27 2 -37 11 -36 7 2 14 -7 16 -19 2 -14 8
-20 18 -16 8 3 14 -1 14 -8 0 -11 3 -11 10 1 6 9 13 11 18 5 4 -5 15 -11 25
-12 14 -1 18 4 14 19 -4 13 -2 17 6 11 7 -5 24 -8 39 -7 22 1 26 -2 18 -12 -7
-8 -7 -14 -1 -18 5 -4 12 -2 16 3 3 6 19 4 40 -5 19 -8 36 -10 40 -5 3 5 16 8
30 6 14 -1 28 2 31 6 3 5 0 9 -7 9 -8 0 -7 5 3 18 10 11 14 35 13 69 -1 33 3
50 9 47 6 -3 4 0 -5 8 -10 9 -15 28 -14 61 0 26 -4 47 -10 47 -5 0 -3 5 5 10
13 9 13 11 0 20 -8 5 -12 10 -8 10 4 0 3 12 -3 28 -6 15 -13 36 -14 47 -2 11
-8 31 -13 45 -7 20 -11 -1 -17 -92 l-7 -116 -45 -4 c-24 -2 -46 -1 -49 1 -2 2
-4 62 -4 133 0 115 -2 130 -20 148 -22 22 -33 23 -67 10z m71 -442 c-5 -8 -2
-9 10 -5 9 4 15 3 11 -2 -3 -6 -14 -9 -25 -8 -14 1 -16 4 -8 14 13 16 22 17
12 1z"/>
<path d="M5965 1340 c-38 -15 -50 -40 -50 -106 0 -52 4 -67 24 -88 32 -34 70
-34 102 0 20 22 24 36 24 90 0 50 -5 68 -20 83 -25 24 -54 32 -80 21z"/>
<path d="M5520 1330 c0 -5 5 -10 11 -10 5 0 7 5 4 10 -3 6 -8 10 -11 10 -2 0
-4 -4 -4 -10z"/>
<path d="M3710 1310 c6 -11 13 -20 15 -20 3 0 5 9 5 20 0 11 -7 20 -15 20 -13
0 -14 -4 -5 -20z"/>
<path d="M4495 1250 c-3 -5 -1 -10 4 -10 6 0 11 5 11 10 0 6 -2 10 -4 10 -3 0
-8 -4 -11 -10z"/>
<path d="M4727 1205 c-59 -15 -71 -26 -63 -59 8 -31 39 -41 77 -26 30 13 43
41 37 78 -3 18 -6 19 -51 7z"/>
<path d="M2515 1200 c-3 -6 1 -7 9 -4 18 7 21 14 7 14 -6 0 -13 -4 -16 -10z"/>
<path d="M2660 1199 c0 -5 5 -7 10 -4 6 3 10 8 10 11 0 2 -4 4 -10 4 -5 0 -10
-5 -10 -11z"/>
<path d="M4886 1138 c3 -24 7 -53 10 -65 4 -21 1 -23 -46 -23 -38 0 -50 4 -50
15 0 19 -2 19 -45 -6 -28 -17 -47 -20 -88 -17 -29 3 -59 7 -67 10 -8 3 -12 3
-7 1 4 -3 5 -8 2 -13 -3 -5 0 -14 7 -22 7 -7 13 -31 12 -53 0 -22 3 -44 7 -50
29 -36 56 -62 72 -68 11 -4 15 -12 11 -18 -4 -7 -3 -9 4 -5 5 3 12 0 15 -6 3
-10 7 -10 17 -1 7 6 19 9 27 6 12 -5 12 -7 1 -14 -10 -7 -10 -9 0 -9 7 0 15 7
18 15 6 14 8 14 18 -1 11 -14 13 -14 25 0 8 9 17 16 22 16 16 0 48 -33 42 -43
-3 -6 -1 -7 5 -3 6 4 8 14 5 24 -3 9 -2 14 2 9 14 -12 45 45 38 72 -3 14 -2
22 4 18 5 -3 8 6 5 23 -2 17 -7 28 -11 25 -4 -2 -7 13 -7 33 -1 33 -9 108 -14
122 -1 3 -3 10 -4 15 -1 6 -5 20 -9 33 -14 37 -27 25 -21 -20z"/>
<path d="M7960 1169 c0 -5 5 -7 10 -4 6 3 10 8 10 11 0 2 -4 4 -10 4 -5 0 -10
-5 -10 -11z"/>
<path d="M3985 1090 c3 -5 8 -10 11 -10 2 0 4 5 4 10 0 6 -5 10 -11 10 -5 0
-7 -4 -4 -10z"/>
<path d="M2996 1041 c-3 -5 1 -14 8 -20 12 -10 13 -8 9 8 -6 23 -9 25 -17 12z"/>
<path d="M2904 896 c1 -8 5 -18 8 -22 4 -3 5 1 4 10 -1 8 -5 18 -8 22 -4 3 -5
-1 -4 -10z"/>
<path d="M3296 869 c3 -5 14 -14 24 -19 16 -8 18 -7 14 4 -3 8 -14 16 -25 19
-10 3 -17 1 -13 -4z"/>
<path d="M5390 850 c-9 -6 -10 -10 -3 -10 6 0 15 5 18 10 8 12 4 12 -15 0z"/>
<path d="M4842 808 c-7 -7 -12 -17 -12 -22 0 -6 5 -4 10 4 9 13 11 13 20 0 5
-8 10 -10 10 -5 0 6 -4 16 -8 22 -6 10 -11 10 -20 1z"/>
<path d="M2475 739 c-11 -16 -1 -19 13 -3 7 8 8 14 3 14 -5 0 -13 -5 -16 -11z"/>
<path d="M7270 730 c-11 -7 -11 -10 -2 -10 7 0 10 -4 7 -10 -3 -5 -1 -10 4
-10 6 0 11 9 11 20 0 23 0 23 -20 10z"/>
<path d="M7207 684 c6 -17 8 -17 21 -1 8 10 6 13 -8 14 -13 1 -17 -3 -13 -13z"/>
<path d="M7125 650 c3 -5 8 -10 11 -10 2 0 4 5 4 10 0 6 -5 10 -11 10 -5 0 -7
-4 -4 -10z"/>
</g>
</svg>
