<svg xmlns="http://www.w3.org/2000/svg" viewBox="0 -0.5 20 20" shape-rendering="crispEdges"><path stroke="#000" d="M5 1h10M4 2h1m10 0h1M3 3h1m12 0h1M2 4h1m14 0h1M1 5h1m16 0h1M1 6h1m16 0h1M1 7h1m16 0h1M1 8h1m3 0h3m3 0h3m4 0h1M1 9h1m4 0h1m5 0h1m5 0h1M1 10h1m16 0h1M1 11h1m16 0h1M1 12h1m16 0h1M1 13h1m5 0h1m10 0h1M1 14h1m6 0h4m6 0h1M2 15h1m14 0h1M3 16h1m12 0h1M4 17h1m10 0h1M5 18h10"/><path stroke="#aa54ff" d="M5 2h7M4 3h10M3 4h12M2 7h14M2 8h3m3 0h3m3 0h2M2 9h4m2 0h4m2 0h2M2 10h4m2 0h4m2 0h2M2 11h14M2 12h14M2 13h5m1 0h8M2 14h6m4 0h4M3 15h6m3 0h3M4 16h10m-9 1h5"/><path stroke="#8843cc" d="M12 2h3m-1 1h2m-1 1h2m-1 3h2m-2 1h2m-2 1h2M6 10h2m4 0h2m2 0h2m-2 1h2m-2 1h2m-2 1h2m-2 1h2m-9 1h3m3 0h2m-3 1h2m-6 1h5"/><path stroke="#3949ab" d="M2 5h14"/><path stroke="#2c3982" d="M16 5h2"/><path stroke="#76ff03" d="M2 6h14"/><path stroke="#5bc400" d="M16 6h2"/><path stroke="#fff" d="M7 9h1m5 0h1"/></svg>