<svg xmlns="http://www.w3.org/2000/svg" viewBox="0 -0.5 20 20" shape-rendering="crispEdges"><path stroke="#000" d="M5 1h10M4 2h12M3 3h14M2 4h16M1 5h2m1 0h1m1 0h1m1 0h1m1 0h1m1 0h2m1 0h4M1 6h2m1 0h1m1 0h1m3 0h1m1 0h2m1 0h4M1 7h1m2 0h1m10 0h2m1 0h1M1 8h1m3 0h3m3 0h3m2 0h1m1 0h1M1 9h1m4 0h1m5 0h1m3 0h1m1 0h1M1 10h1m16 0h1M1 11h1m16 0h1M1 12h1m16 0h1M1 13h1m16 0h1M1 14h1m6 0h4m6 0h1M2 15h1m14 0h1M3 16h1m12 0h1M4 17h1m10 0h1M5 18h4m2 0h4"/><path stroke="#00e6ff" d="M3 5h1m1 0h1m1 0h1m1 0h1m1 0h1m2 0h1M3 6h1m1 0h1m1 0h3m1 0h1m2 0h1M2 7h2m1 0h10M2 8h3m3 0h3m3 0h2M2 9h4m2 0h4m2 0h2M2 10h4m2 0h4m2 0h2M2 11h14M2 12h14M2 13h6m4 0h4M2 14h5m6 0h3M3 15h6m3 0h3M4 16h10m-9 1h3"/><path stroke="#00c1cf" d="M17 7h1m-1 1h1m-1 1h1M6 10h2m4 0h2m2 0h2m-2 1h2m-2 1h2m-2 1h2m-2 1h2m-9 1h3m3 0h2m-3 1h2m-4 1h3"/><path stroke="#fff" d="M7 9h1m5 0h1"/><path stroke="#3e2723" d="M8 13h4m-5 1h1m4 0h1m-5 3h4m-3 1h2"/></svg>